<?xml version="1.0" encoding="UTF-8"?>
<mxfile host="Electron" agent="Mozilla/5.0 (X11; Linux x86_64) AppleWebKit/537.36 (KHTML, like Gecko) draw.io/26.0.9 Chrome/128.0.6613.186 Electron/32.2.5 Safari/537.36" version="26.0.9">
  <diagram name="Page-1" id="Ag8kehxfa9rglU9c0TGu">
    <mxGraphModel dx="6660" dy="6824" grid="1" gridSize="10" guides="1" tooltips="1" connect="1" arrows="1" fold="1" page="1" pageScale="1" pageWidth="1169" pageHeight="827" background="none" math="1" shadow="0">
      <root>
        <mxCell id="0" />
        <mxCell id="1" parent="0" />
        <mxCell id="2" value="" style="group" vertex="1" connectable="0" parent="1">
          <mxGeometry x="4447" y="-880" width="1173" height="505" as="geometry" />
        </mxCell>
        <mxCell id="3" value="i&lt;sub&gt;2Low&lt;/sub&gt;" style="text;html=1;align=center;verticalAlign=middle;resizable=0;points=[];autosize=1;strokeColor=none;fillColor=none;fontStyle=2;rounded=0;strokeWidth=2;" vertex="1" parent="2">
          <mxGeometry x="548" y="259.92999999999995" width="50" height="30" as="geometry" />
        </mxCell>
        <mxCell id="4" value="V&lt;sub&gt;1Low&lt;/sub&gt;" style="text;html=1;align=center;verticalAlign=middle;resizable=0;points=[];autosize=1;strokeColor=none;fillColor=none;fontStyle=2;rounded=0;strokeWidth=2;" vertex="1" parent="2">
          <mxGeometry x="138" y="360" width="60" height="30" as="geometry" />
        </mxCell>
        <mxCell id="5" value="C&lt;sub&gt;High&lt;/sub&gt;" style="text;html=1;align=center;verticalAlign=middle;resizable=0;points=[];autosize=1;strokeColor=none;fillColor=none;fontSize=20;fontStyle=1;rounded=0;strokeWidth=2;" vertex="1" parent="2">
          <mxGeometry x="869" y="213.25" width="70" height="40" as="geometry" />
        </mxCell>
        <mxCell id="6" value="C&lt;sub&gt;1Low&lt;/sub&gt;" style="text;html=1;align=center;verticalAlign=middle;resizable=0;points=[];autosize=1;strokeColor=none;fillColor=none;fontSize=20;fontStyle=1;rounded=0;strokeWidth=2;" vertex="1" parent="2">
          <mxGeometry x="252" y="314.0000000000001" width="80" height="40" as="geometry" />
        </mxCell>
        <mxCell id="7" value="L&lt;sub&gt;1&lt;/sub&gt;" style="text;html=1;align=center;verticalAlign=middle;resizable=0;points=[];autosize=1;strokeColor=none;fillColor=none;fontSize=20;fontStyle=1;rounded=0;strokeWidth=2;" vertex="1" parent="2">
          <mxGeometry x="608" y="168.25" width="40" height="40" as="geometry" />
        </mxCell>
        <mxCell id="8" value="L&lt;sub&gt;2&lt;/sub&gt;" style="text;html=1;align=center;verticalAlign=middle;resizable=0;points=[];autosize=1;strokeColor=none;fillColor=none;fontSize=20;fontStyle=1;rounded=0;strokeWidth=2;" vertex="1" parent="2">
          <mxGeometry x="608" y="215.25" width="40" height="40" as="geometry" />
        </mxCell>
        <mxCell id="9" value="V&lt;sub&gt;1Low&lt;/sub&gt;" style="text;html=1;align=center;verticalAlign=middle;resizable=0;points=[];autosize=1;strokeColor=none;fillColor=none;fontSize=20;fontStyle=1;rounded=0;strokeWidth=2;" vertex="1" parent="2">
          <mxGeometry x="88" y="169.25" width="80" height="40" as="geometry" />
        </mxCell>
        <mxCell id="10" value="V&lt;sub&gt;2Low&lt;/sub&gt;" style="text;html=1;align=center;verticalAlign=middle;resizable=0;points=[];autosize=1;strokeColor=none;fillColor=none;fontSize=20;fontStyle=1;rounded=0;strokeWidth=2;" vertex="1" parent="2">
          <mxGeometry x="88" y="211.25" width="80" height="40" as="geometry" />
        </mxCell>
        <mxCell id="11" value="GND" style="text;html=1;align=center;verticalAlign=middle;resizable=0;points=[];autosize=1;strokeColor=none;fillColor=none;fontSize=20;fontStyle=1;rounded=0;strokeWidth=2;" vertex="1" parent="2">
          <mxGeometry x="93" y="401.25" width="70" height="40" as="geometry" />
        </mxCell>
        <mxCell id="12" value="GND" style="text;html=1;align=center;verticalAlign=middle;resizable=0;points=[];autosize=1;strokeColor=none;fillColor=none;fontSize=20;fontStyle=1;rounded=0;strokeWidth=2;" vertex="1" parent="2">
          <mxGeometry x="1056" y="402.5" width="70" height="40" as="geometry" />
        </mxCell>
        <mxCell id="13" value="V&lt;sub&gt;High&lt;/sub&gt;" style="text;html=1;align=center;verticalAlign=middle;resizable=0;points=[];autosize=1;strokeColor=none;fillColor=none;fontStyle=2;rounded=0;strokeWidth=2;" vertex="1" parent="2">
          <mxGeometry x="956" y="253.25" width="50" height="30" as="geometry" />
        </mxCell>
        <mxCell id="14" value="i&lt;sub&gt;High&lt;/sub&gt;" style="text;html=1;align=center;verticalAlign=middle;resizable=0;points=[];autosize=1;strokeColor=none;fillColor=none;fontStyle=2;rounded=0;strokeWidth=2;" vertex="1" parent="2">
          <mxGeometry x="1006" y="70" width="50" height="30" as="geometry" />
        </mxCell>
        <mxCell id="15" value="Q&lt;sub&gt;5&lt;/sub&gt;" style="text;html=1;align=center;verticalAlign=middle;resizable=0;points=[];autosize=1;strokeColor=none;fillColor=none;fontSize=20;fontStyle=1;rounded=0;strokeWidth=2;" vertex="1" parent="2">
          <mxGeometry x="217" y="322.75" width="50" height="40" as="geometry" />
        </mxCell>
        <mxCell id="16" value="" style="shape=waypoint;fillStyle=solid;size=6;pointerEvents=1;points=[];fillColor=none;resizable=0;rotatable=0;perimeter=centerPerimeter;snapToPoint=1;strokeColor=none;rounded=0;strokeWidth=2;" vertex="1" parent="2">
          <mxGeometry x="165" y="237.25" width="20" height="20" as="geometry" />
        </mxCell>
        <mxCell id="17" value="" style="verticalLabelPosition=bottom;shadow=0;dashed=0;align=center;html=1;verticalAlign=top;strokeWidth=2;shape=ellipse;perimeter=ellipsePerimeter;rounded=0;fillColor=none;" vertex="1" parent="2">
          <mxGeometry x="138" y="209.25" width="15" height="15" as="geometry" />
        </mxCell>
        <mxCell id="18" value="" style="verticalLabelPosition=bottom;shadow=0;dashed=0;align=center;html=1;verticalAlign=top;strokeWidth=2;shape=ellipse;perimeter=ellipsePerimeter;rounded=0;fillColor=none;" vertex="1" parent="2">
          <mxGeometry x="138" y="251.75" width="15" height="15" as="geometry" />
        </mxCell>
        <mxCell id="19" value="" style="verticalLabelPosition=bottom;shadow=0;dashed=0;align=center;html=1;verticalAlign=top;strokeWidth=2;shape=ellipse;perimeter=ellipsePerimeter;rounded=0;fillColor=none;" vertex="1" parent="2">
          <mxGeometry x="138" y="442.5" width="15" height="15" as="geometry" />
        </mxCell>
        <mxCell id="20" value="" style="verticalLabelPosition=bottom;shadow=0;dashed=0;align=center;html=1;verticalAlign=top;strokeWidth=2;shape=ellipse;perimeter=ellipsePerimeter;rounded=0;fillColor=none;" vertex="1" parent="2">
          <mxGeometry x="1083.5" y="52.5" width="15" height="15" as="geometry" />
        </mxCell>
        <mxCell id="21" value="" style="verticalLabelPosition=bottom;shadow=0;dashed=0;align=center;html=1;verticalAlign=top;strokeWidth=2;shape=ellipse;perimeter=ellipsePerimeter;rounded=0;fillColor=none;" vertex="1" parent="2">
          <mxGeometry x="1085" y="442.75" width="15" height="15" as="geometry" />
        </mxCell>
        <mxCell id="22" value="i&lt;sub&gt;1Low&lt;/sub&gt;" style="text;html=1;align=center;verticalAlign=middle;resizable=0;points=[];autosize=1;strokeColor=none;fillColor=none;fontStyle=2;rounded=0;strokeWidth=2;" vertex="1" parent="2">
          <mxGeometry x="548" y="175.75" width="50" height="30" as="geometry" />
        </mxCell>
        <mxCell id="23" value="+" style="text;html=1;align=center;verticalAlign=middle;resizable=0;points=[];autosize=1;strokeColor=none;fillColor=none;strokeWidth=2;fontStyle=1;rounded=0;" vertex="1" parent="2">
          <mxGeometry x="534" y="243" width="30" height="30" as="geometry" />
        </mxCell>
        <mxCell id="24" value="V&lt;sub&gt;2Low&lt;/sub&gt;" style="text;html=1;align=center;verticalAlign=middle;resizable=0;points=[];autosize=1;strokeColor=none;fillColor=none;fontStyle=2;rounded=0;strokeWidth=2;" vertex="1" parent="2">
          <mxGeometry x="322" y="360" width="60" height="30" as="geometry" />
        </mxCell>
        <mxCell id="25" value="" style="shape=waypoint;fillStyle=solid;size=6;pointerEvents=1;points=[];fillColor=none;resizable=0;rotatable=0;perimeter=centerPerimeter;snapToPoint=1;strokeColor=none;rounded=0;strokeWidth=2;" vertex="1" parent="2">
          <mxGeometry x="166" y="256.25" width="20" height="20" as="geometry" />
        </mxCell>
        <mxCell id="26" value="" style="pointerEvents=1;verticalLabelPosition=middle;shadow=0;dashed=0;align=left;html=1;verticalAlign=top;shape=mxgraph.electrical.capacitors.capacitor_2;spacing=0;labelPosition=center;spacingTop=10;spacingLeft=25;fillColor=none;rotation=90;strokeWidth=2;" vertex="1" parent="2">
          <mxGeometry x="232" y="300" width="60" height="20" as="geometry" />
        </mxCell>
        <mxCell id="27" value="" style="pointerEvents=1;verticalLabelPosition=middle;shadow=0;dashed=0;align=left;html=1;verticalAlign=top;shape=mxgraph.electrical.capacitors.capacitor_1;labelPosition=center;spacingBottom=0;spacingLeft=25;direction=east;spacing=0;spacingTop=10;points=[[0,0.5,0,0,0],[0.5,0,0,0,-3],[0.5,1,0,0,2],[1,0.5,0,0,0]];fillColor=none;rotation=90;strokeWidth=2;" vertex="1" parent="2">
          <mxGeometry x="292" y="301.75" width="60" height="20" as="geometry" />
        </mxCell>
        <mxCell id="28" value="" style="shape=waypoint;sketch=0;fillStyle=solid;size=6;pointerEvents=1;points=[];fillColor=none;resizable=0;rotatable=0;perimeter=centerPerimeter;snapToPoint=1;strokeWidth=2;" vertex="1" parent="2">
          <mxGeometry x="278" y="419.75" width="20" height="20" as="geometry" />
        </mxCell>
        <mxCell id="29" value="" style="edgeStyle=orthogonalEdgeStyle;orthogonalLoop=1;jettySize=auto;html=1;rounded=0;exitX=1;exitY=0.5;exitDx=0;exitDy=0;exitPerimeter=0;endArrow=none;startFill=0;entryX=0.903;entryY=0.529;entryDx=0;entryDy=0;entryPerimeter=0;strokeWidth=2;" edge="1" parent="2" source="27" target="28">
          <mxGeometry width="100" relative="1" as="geometry">
            <mxPoint x="282" y="390" as="sourcePoint" />
            <mxPoint x="298" y="430" as="targetPoint" />
            <Array as="points">
              <mxPoint x="322" y="430" />
            </Array>
          </mxGeometry>
        </mxCell>
        <mxCell id="30" value="" style="edgeStyle=elbowEdgeStyle;orthogonalLoop=1;jettySize=auto;html=1;rounded=0;exitX=1;exitY=1;exitDx=0;exitDy=0;entryX=0.5;entryY=0.512;entryDx=0;entryDy=0;entryPerimeter=0;endArrow=none;startFill=0;elbow=vertical;strokeWidth=2;" edge="1" parent="2" source="68">
          <mxGeometry width="100" relative="1" as="geometry">
            <mxPoint x="256" y="400" as="sourcePoint" />
            <mxPoint x="292" y="429.75" as="targetPoint" />
          </mxGeometry>
        </mxCell>
        <mxCell id="31" value="" style="shape=waypoint;sketch=0;fillStyle=solid;size=6;pointerEvents=1;points=[];fillColor=none;resizable=0;rotatable=0;perimeter=centerPerimeter;snapToPoint=1;strokeWidth=2;" vertex="1" parent="2">
          <mxGeometry x="278" y="270.25" width="20" height="20" as="geometry" />
        </mxCell>
        <mxCell id="32" value="" style="edgeStyle=orthogonalEdgeStyle;orthogonalLoop=1;jettySize=auto;html=1;rounded=0;exitX=0;exitY=0.5;exitDx=0;exitDy=0;exitPerimeter=0;entryX=0.566;entryY=0.596;entryDx=0;entryDy=0;entryPerimeter=0;elbow=vertical;endArrow=none;startFill=0;strokeWidth=2;" edge="1" parent="2" source="26" target="31">
          <mxGeometry width="100" relative="1" as="geometry">
            <mxPoint x="252" y="270" as="sourcePoint" />
            <mxPoint x="352" y="270" as="targetPoint" />
            <Array as="points">
              <mxPoint x="262" y="280" />
              <mxPoint x="288" y="280" />
            </Array>
          </mxGeometry>
        </mxCell>
        <mxCell id="33" value="" style="edgeStyle=orthogonalEdgeStyle;orthogonalLoop=1;jettySize=auto;html=1;rounded=0;exitX=0;exitY=0.5;exitDx=0;exitDy=0;exitPerimeter=0;entryX=0.7;entryY=0.487;entryDx=0;entryDy=0;entryPerimeter=0;elbow=vertical;endArrow=none;startFill=0;strokeWidth=2;" edge="1" parent="2" source="27" target="31">
          <mxGeometry width="100" relative="1" as="geometry">
            <mxPoint x="292" y="273.75" as="sourcePoint" />
            <mxPoint x="318" y="271.75" as="targetPoint" />
            <Array as="points">
              <mxPoint x="312" y="280" />
              <mxPoint x="288" y="280" />
            </Array>
          </mxGeometry>
        </mxCell>
        <mxCell id="34" value="" style="edgeStyle=elbowEdgeStyle;orthogonalLoop=1;jettySize=auto;html=1;rounded=0;entryX=0.614;entryY=0.117;entryDx=0;entryDy=0;entryPerimeter=0;endArrow=none;startFill=0;exitX=0.7;exitY=0.663;exitDx=0;exitDy=0;exitPerimeter=0;jumpStyle=arc;strokeWidth=2;" edge="1" parent="2" source="35" target="31">
          <mxGeometry width="100" relative="1" as="geometry">
            <mxPoint x="258" y="230" as="sourcePoint" />
            <mxPoint x="266" y="270.25" as="targetPoint" />
            <Array as="points">
              <mxPoint x="288" y="250" />
              <mxPoint x="264" y="250" />
            </Array>
          </mxGeometry>
        </mxCell>
        <mxCell id="35" value="" style="shape=waypoint;sketch=0;fillStyle=solid;size=6;pointerEvents=1;points=[];fillColor=none;resizable=0;rotatable=0;perimeter=centerPerimeter;snapToPoint=1;strokeWidth=2;" vertex="1" parent="2">
          <mxGeometry x="278" y="206.75" width="20" height="20" as="geometry" />
        </mxCell>
        <mxCell id="36" value="" style="edgeStyle=elbowEdgeStyle;orthogonalLoop=1;jettySize=auto;html=1;rounded=0;entryX=0.218;entryY=0.086;entryDx=0;entryDy=0;entryPerimeter=0;endArrow=none;startFill=0;exitDx=0;exitDy=0;jumpStyle=arc;strokeWidth=2;" edge="1" parent="2" source="72" target="35">
          <mxGeometry width="100" relative="1" as="geometry">
            <mxPoint x="277.9499999999998" y="190" as="sourcePoint" />
            <mxPoint x="277.9499999999998" y="253" as="targetPoint" />
          </mxGeometry>
        </mxCell>
        <mxCell id="37" value="" style="shape=waypoint;sketch=0;fillStyle=solid;size=6;pointerEvents=1;points=[];fillColor=none;resizable=0;rotatable=0;perimeter=centerPerimeter;snapToPoint=1;strokeWidth=2;" vertex="1" parent="2">
          <mxGeometry x="369" y="248.75" width="20" height="20" as="geometry" />
        </mxCell>
        <mxCell id="38" value="" style="edgeStyle=elbowEdgeStyle;orthogonalLoop=1;jettySize=auto;html=1;rounded=0;entryX=0.5;entryY=0;entryDx=0;entryDy=0;entryPerimeter=0;endArrow=none;startFill=0;exitX=0.651;exitY=0.911;exitDx=0;exitDy=0;exitPerimeter=0;jumpStyle=arc;strokeWidth=2;" edge="1" parent="2" source="37" target="131">
          <mxGeometry width="100" relative="1" as="geometry">
            <mxPoint x="332" y="237" as="sourcePoint" />
            <mxPoint x="332" y="300" as="targetPoint" />
          </mxGeometry>
        </mxCell>
        <mxCell id="39" value="" style="shape=waypoint;sketch=0;fillStyle=solid;size=6;pointerEvents=1;points=[];fillColor=none;resizable=0;rotatable=0;perimeter=centerPerimeter;snapToPoint=1;strokeWidth=2;" vertex="1" parent="2">
          <mxGeometry x="369" y="440" width="20" height="20" as="geometry" />
        </mxCell>
        <mxCell id="40" value="" style="edgeStyle=elbowEdgeStyle;orthogonalLoop=1;jettySize=auto;html=1;rounded=0;entryX=0.627;entryY=0.002;entryDx=0;entryDy=0;entryPerimeter=0;endArrow=none;startFill=0;exitX=0.5;exitY=1;exitDx=0;exitDy=0;exitPerimeter=0;jumpStyle=arc;strokeWidth=2;" edge="1" parent="2" source="131" target="39">
          <mxGeometry width="100" relative="1" as="geometry">
            <mxPoint x="389" y="269" as="sourcePoint" />
            <mxPoint x="389" y="340" as="targetPoint" />
          </mxGeometry>
        </mxCell>
        <mxCell id="41" value="" style="edgeStyle=elbowEdgeStyle;orthogonalLoop=1;jettySize=auto;html=1;rounded=0;entryX=0.367;entryY=0.484;entryDx=0;entryDy=0;entryPerimeter=0;endArrow=none;startFill=0;exitDx=0;exitDy=0;jumpStyle=arc;strokeWidth=2;" edge="1" parent="2" source="44" target="39">
          <mxGeometry width="100" relative="1" as="geometry">
            <mxPoint x="375" y="279" as="sourcePoint" />
            <mxPoint x="375" y="350" as="targetPoint" />
          </mxGeometry>
        </mxCell>
        <mxCell id="42" value="" style="edgeStyle=elbowEdgeStyle;orthogonalLoop=1;jettySize=auto;html=1;rounded=0;endArrow=none;startFill=0;exitX=0.532;exitY=1.003;exitDx=0;exitDy=0;exitPerimeter=0;jumpStyle=arc;entryX=0.631;entryY=0.447;entryDx=0;entryDy=0;entryPerimeter=0;strokeWidth=2;" edge="1" parent="2" source="28" target="44">
          <mxGeometry width="100" relative="1" as="geometry">
            <mxPoint x="385" y="289" as="sourcePoint" />
            <mxPoint x="312" y="440" as="targetPoint" />
          </mxGeometry>
        </mxCell>
        <mxCell id="43" value="" style="edgeStyle=elbowEdgeStyle;orthogonalLoop=1;jettySize=auto;html=1;rounded=0;entryDx=0;entryDy=0;entryPerimeter=0;endArrow=none;startFill=0;exitDx=0;exitDy=0;jumpStyle=arc;strokeWidth=2;" edge="1" parent="2" source="46" target="44">
          <mxGeometry width="100" relative="1" as="geometry">
            <mxPoint x="153" y="450" as="sourcePoint" />
            <mxPoint x="331" y="450" as="targetPoint" />
          </mxGeometry>
        </mxCell>
        <mxCell id="44" value="" style="shape=waypoint;sketch=0;fillStyle=solid;size=6;pointerEvents=1;points=[];fillColor=none;resizable=0;rotatable=0;perimeter=centerPerimeter;snapToPoint=1;strokeWidth=2;" vertex="1" parent="2">
          <mxGeometry x="278" y="439.75" width="20" height="20" as="geometry" />
        </mxCell>
        <mxCell id="45" value="" style="edgeStyle=elbowEdgeStyle;orthogonalLoop=1;jettySize=auto;html=1;rounded=0;entryDx=0;entryDy=0;entryPerimeter=0;endArrow=none;startFill=0;exitX=1;exitY=0.5;exitDx=0;exitDy=0;jumpStyle=arc;strokeWidth=2;" edge="1" parent="2" source="19" target="46">
          <mxGeometry width="100" relative="1" as="geometry">
            <mxPoint x="153" y="450" as="sourcePoint" />
            <mxPoint x="264" y="450" as="targetPoint" />
          </mxGeometry>
        </mxCell>
        <mxCell id="46" value="" style="shape=waypoint;sketch=0;fillStyle=solid;size=6;pointerEvents=1;points=[];fillColor=none;resizable=0;rotatable=0;perimeter=centerPerimeter;snapToPoint=1;strokeWidth=2;" vertex="1" parent="2">
          <mxGeometry x="187" y="439.75" width="20" height="20" as="geometry" />
        </mxCell>
        <mxCell id="47" value="" style="group;strokeWidth=2;" connectable="0" vertex="1" parent="2">
          <mxGeometry x="177" y="320" width="40" height="50" as="geometry" />
        </mxCell>
        <mxCell id="48" value="+" style="text;html=1;align=center;verticalAlign=middle;resizable=0;points=[];autosize=1;strokeColor=none;fillColor=none;fontStyle=1;rounded=0;" vertex="1" parent="47">
          <mxGeometry x="5" width="30" height="30" as="geometry" />
        </mxCell>
        <mxCell id="49" value="V" style="verticalLabelPosition=middle;shadow=0;dashed=0;align=center;html=1;verticalAlign=middle;strokeWidth=2;shape=ellipse;aspect=fixed;fontSize=20;spacing=0;spacingBottom=2;points=[[0,0.5,0,0,0],[0.5,0,0,0,0],[0.5,1,0,0,0],[1,0.5,0,0,0]];fillColor=none;" vertex="1" parent="47">
          <mxGeometry y="10" width="40" height="40" as="geometry" />
        </mxCell>
        <mxCell id="50" value="" style="edgeStyle=elbowEdgeStyle;orthogonalLoop=1;jettySize=auto;html=1;rounded=0;entryX=0.5;entryY=0;entryDx=0;entryDy=0;entryPerimeter=0;endArrow=none;startFill=0;jumpStyle=arc;exitX=0.509;exitY=0.645;exitDx=0;exitDy=0;exitPerimeter=0;strokeWidth=2;" edge="1" parent="2" source="72" target="49">
          <mxGeometry width="100" relative="1" as="geometry">
            <mxPoint x="198" y="280" as="sourcePoint" />
            <mxPoint x="162.63999999999987" y="373.5" as="targetPoint" />
          </mxGeometry>
        </mxCell>
        <mxCell id="51" value="" style="edgeStyle=elbowEdgeStyle;orthogonalLoop=1;jettySize=auto;html=1;rounded=0;entryX=0.554;entryY=0.102;entryDx=0;entryDy=0;entryPerimeter=0;endArrow=none;startFill=0;exitX=0.5;exitY=1;exitDx=0;exitDy=0;exitPerimeter=0;jumpStyle=arc;strokeWidth=2;" edge="1" parent="2" source="49" target="46">
          <mxGeometry width="100" relative="1" as="geometry">
            <mxPoint x="207" y="269" as="sourcePoint" />
            <mxPoint x="207" y="340" as="targetPoint" />
          </mxGeometry>
        </mxCell>
        <mxCell id="52" value="A" style="verticalLabelPosition=middle;shadow=0;dashed=0;align=center;html=1;verticalAlign=middle;strokeWidth=2;shape=ellipse;aspect=fixed;fontSize=20;spacing=0;spacingBottom=2;spacingTop=0;points=[[0,0.5,0,0,0],[0.5,0,0,0,0],[0.5,1,0,0,0],[1,0.5,0,0,0]];fillColor=none;" vertex="1" parent="2">
          <mxGeometry x="518" y="240" width="40" height="40" as="geometry" />
        </mxCell>
        <mxCell id="53" value="A" style="verticalLabelPosition=middle;shadow=0;dashed=0;align=center;html=1;verticalAlign=middle;strokeWidth=2;shape=ellipse;aspect=fixed;fontSize=20;spacing=0;spacingBottom=2;spacingTop=0;points=[[0,0.5,0,0,0],[0.5,0,0,0,0],[0.5,1,0,0,0],[1,0.5,0,0,0]];fillColor=none;" vertex="1" parent="2">
          <mxGeometry x="518" y="196" width="40" height="40" as="geometry" />
        </mxCell>
        <mxCell id="54" value="+" style="text;html=1;align=center;verticalAlign=middle;resizable=0;points=[];autosize=1;strokeColor=none;fillColor=none;strokeWidth=2;fontStyle=1;rounded=0;" vertex="1" parent="2">
          <mxGeometry x="534" y="198.75" width="30" height="30" as="geometry" />
        </mxCell>
        <mxCell id="55" value="" style="pointerEvents=1;verticalLabelPosition=middle;shadow=0;dashed=0;align=left;html=1;verticalAlign=top;shape=mxgraph.electrical.inductors.inductor_3;labelPosition=center;spacingBottom=0;spacingLeft=25;direction=east;spacing=0;spacingTop=0;points=[[0,1,0,0,0],[0.5,1,0,0,0],[1,1,0,0,0]];fillColor=none;strokeWidth=2;" vertex="1" parent="2">
          <mxGeometry x="598" y="206" width="60" height="10" as="geometry" />
        </mxCell>
        <mxCell id="56" value="" style="pointerEvents=1;verticalLabelPosition=middle;shadow=0;dashed=0;align=left;html=1;verticalAlign=top;shape=mxgraph.electrical.inductors.inductor_3;labelPosition=center;spacingBottom=0;spacingLeft=25;direction=east;spacing=0;spacingTop=0;points=[[0,1,0,0,0],[0.5,1,0,0,0],[1,1,0,0,0]];fillColor=none;strokeWidth=2;" vertex="1" parent="2">
          <mxGeometry x="598" y="250" width="60" height="10" as="geometry" />
        </mxCell>
        <mxCell id="57" value="" style="edgeStyle=elbowEdgeStyle;orthogonalLoop=1;jettySize=auto;html=1;rounded=0;endArrow=none;startFill=0;jumpStyle=arc;elbow=vertical;entryX=1;entryY=0.5;entryDx=0;entryDy=0;entryPerimeter=0;exitX=0;exitY=1;exitDx=0;exitDy=0;exitPerimeter=0;strokeWidth=2;" edge="1" parent="2" source="55" target="53">
          <mxGeometry width="100" relative="1" as="geometry">
            <mxPoint x="598" y="216" as="sourcePoint" />
            <mxPoint x="558" y="219" as="targetPoint" />
          </mxGeometry>
        </mxCell>
        <mxCell id="58" value="" style="edgeStyle=elbowEdgeStyle;orthogonalLoop=1;jettySize=auto;html=1;rounded=0;entryX=1;entryY=0.5;entryDx=0;entryDy=0;entryPerimeter=0;endArrow=none;startFill=0;exitX=0;exitY=1;exitDx=0;exitDy=0;exitPerimeter=0;jumpStyle=arc;elbow=vertical;strokeWidth=2;" edge="1" parent="2" source="56" target="52">
          <mxGeometry width="100" relative="1" as="geometry">
            <mxPoint x="589.8200000000002" y="255.25" as="sourcePoint" />
            <mxPoint x="589.8200000000002" y="318.25" as="targetPoint" />
          </mxGeometry>
        </mxCell>
        <mxCell id="59" value="" style="pointerEvents=1;verticalLabelPosition=middle;shadow=0;dashed=0;align=left;html=1;verticalAlign=top;shape=mxgraph.electrical.capacitors.capacitor_1;labelPosition=center;spacingBottom=0;spacingLeft=25;direction=east;spacing=0;spacingTop=10;points=[[0,0.5,0,0,0],[0.5,0,0,0,-3],[0.5,1,0,0,2],[1,0.5,0,0,0]];fillColor=none;rotation=90;strokeWidth=2;" vertex="1" parent="2">
          <mxGeometry x="920" y="230" width="60" height="20" as="geometry" />
        </mxCell>
        <mxCell id="60" value="" style="group;strokeWidth=2;" connectable="0" vertex="1" parent="2">
          <mxGeometry x="222" y="350" width="63" height="80" as="geometry" />
        </mxCell>
        <mxCell id="61" value="" style="ellipse;whiteSpace=wrap;html=1;fillColor=light-dark(#99C3B7,#99C3B7);strokeWidth=2;strokeColor=default;container=0;" vertex="1" parent="60">
          <mxGeometry x="6" y="12.75" width="57" height="57" as="geometry" />
        </mxCell>
        <mxCell id="62" value="" style="shape=stencil(rZRNbsMgEIVPw7bC4GZf0fYexJnEKAQsoEl7+2CPLYU4Rv7pxtK8Jz5mHmDCha9lA4TRmvBPwhij8RPLG5ZlX0rfQBVQu0qn5F4DOj44e4abOoSeoEwNToXW5V+EfpAWSQkXlTUmQpQ1PnEe/AiTysS19Bdh/fZ/ffX2jnUTd7hAAId6gSph37PBxRYwF1GZGoeLvazOJ2d/zOFlO41soxoZg32xV3jo8ykBmht1QGhlphFsBYKniGIWotLWQ+ZYoj6KolMn8uPiaB1kgj0qrfE6ZnZdlP6asbPhz0OkTbBdgiiXN/FE2H4BthNWIcr/RhS75cex6i2kXZRLEK8fyuBN3vdu2ejBdCr+8jvhDg==);html=1;verticalAlign=top;align=left;spacingTop=10;spacing=0;spacingLeft=25;fillColor=none;flipV=1;rotation=-90;aspect=fixed;strokeWidth=2;container=0;" vertex="1" parent="60">
          <mxGeometry x="40" y="36" width="20" height="10" as="geometry" />
        </mxCell>
        <mxCell id="63" value="" style="edgeStyle=orthogonalEdgeStyle;orthogonalLoop=1;jettySize=auto;html=1;rounded=0;endArrow=none;startFill=0;entryX=1;entryY=0.5;entryDx=0;entryDy=0;strokeWidth=2;" edge="1" parent="60" source="64">
          <mxGeometry width="100" relative="1" as="geometry">
            <mxPoint x="40" y="26.75" as="sourcePoint" />
            <mxPoint x="50" y="35.75" as="targetPoint" />
          </mxGeometry>
        </mxCell>
        <mxCell id="64" value="" style="shape=waypoint;sketch=0;fillStyle=solid;size=6;pointerEvents=1;points=[];fillColor=none;resizable=0;rotatable=0;perimeter=centerPerimeter;snapToPoint=1;strokeColor=default;strokeWidth=1;container=0;" vertex="1" parent="60">
          <mxGeometry x="30" y="10" width="20" height="20" as="geometry" />
        </mxCell>
        <mxCell id="65" value="" style="edgeStyle=orthogonalEdgeStyle;orthogonalLoop=1;jettySize=auto;html=1;rounded=0;exitX=0;exitY=0.5;exitDx=0;exitDy=0;endArrow=none;startFill=0;strokeWidth=2;" edge="1" parent="60" target="66">
          <mxGeometry width="100" relative="1" as="geometry">
            <mxPoint x="50" y="50.75" as="sourcePoint" />
            <mxPoint x="50" y="71.75" as="targetPoint" />
            <Array as="points">
              <mxPoint x="50" y="60.75" />
            </Array>
          </mxGeometry>
        </mxCell>
        <mxCell id="66" value="" style="shape=waypoint;sketch=0;fillStyle=solid;size=6;pointerEvents=1;points=[];fillColor=none;resizable=0;rotatable=0;perimeter=centerPerimeter;snapToPoint=1;strokeColor=default;strokeWidth=1;container=0;" vertex="1" parent="60">
          <mxGeometry x="30" y="50.75" width="20" height="20" as="geometry" />
        </mxCell>
        <mxCell id="67" value="" style="edgeStyle=orthogonalEdgeStyle;orthogonalLoop=1;jettySize=auto;html=1;rounded=0;entryX=0.5;entryY=0.5;entryDx=0;entryDy=0;entryPerimeter=0;endArrow=block;endFill=0;strokeWidth=2;" edge="1" parent="60" source="66">
          <mxGeometry width="100" relative="1" as="geometry">
            <mxPoint x="-50" y="71.75" as="sourcePoint" />
            <mxPoint x="20" y="40.75" as="targetPoint" />
            <Array as="points">
              <mxPoint x="40" y="40.75" />
            </Array>
          </mxGeometry>
        </mxCell>
        <mxCell id="68" value="" style="shape=stencil(xZXbboMwDIafJrdTTu24nej6Hin1RlSaoJAe9vYLhFYlLGgjVJMQkv3jL45jHMTyphQ1IIoviG0QpRy7lzNLb2a9KZoaCut9Z2Gk2FXglcYafYCL3Ns+RKoSjLStyt4RfnPftA/LC62Ug0itmoHyoDuYkMrF4quH9ct/9dbLytu1W+EIFoz3E+9FdPtrMBmCn4MlS2HvGw8LEUJY7jyxQrN8J4rDp9EntR9HRbUPbeAH4S7LqvJNMLGpWrTtMRJu8lGfIXboazxVrxuhkuqBQF5nIIZJBAj6P1kEtSDZ37MIECw9C8aTs+Dr5CxWM04kbC2anMWcvuCLI9LPdM5fxhdHZJOIbkxFJom7yGIzqAsbDbHO6y+/zvEN);whiteSpace=wrap;html=1;strokeWidth=2;movable=1;resizable=1;rotatable=1;deletable=1;editable=1;locked=0;connectable=1;fillColor=none;" vertex="1" parent="60">
          <mxGeometry width="40" height="80" as="geometry" />
        </mxCell>
        <mxCell id="69" value="" style="edgeStyle=elbowEdgeStyle;orthogonalLoop=1;jettySize=auto;html=1;rounded=0;exitX=1;exitY=0.5;exitDx=0;exitDy=0;entryX=1;entryY=0;entryDx=0;entryDy=0;endArrow=none;startFill=0;elbow=vertical;exitPerimeter=0;strokeWidth=2;" edge="1" parent="2" source="26" target="68">
          <mxGeometry width="100" relative="1" as="geometry">
            <mxPoint x="272" y="440" as="sourcePoint" />
            <mxPoint x="302" y="439.75" as="targetPoint" />
          </mxGeometry>
        </mxCell>
        <mxCell id="70" value="" style="edgeStyle=elbowEdgeStyle;orthogonalLoop=1;jettySize=auto;html=1;rounded=0;entryX=0.091;entryY=0.615;entryDx=0;entryDy=0;entryPerimeter=0;endArrow=none;startFill=0;jumpStyle=arc;exitX=1;exitY=0.5;exitDx=0;exitDy=0;strokeWidth=2;" edge="1" parent="2" source="18" target="37">
          <mxGeometry width="100" relative="1" as="geometry">
            <mxPoint x="197" y="259" as="sourcePoint" />
            <mxPoint x="261" y="257.88" as="targetPoint" />
          </mxGeometry>
        </mxCell>
        <mxCell id="71" value="" style="edgeStyle=elbowEdgeStyle;orthogonalLoop=1;jettySize=auto;html=1;rounded=0;entryDx=0;entryDy=0;entryPerimeter=0;endArrow=none;startFill=0;exitX=1;exitY=0.5;exitDx=0;exitDy=0;jumpStyle=arc;strokeWidth=2;" edge="1" parent="2" source="17" target="72">
          <mxGeometry width="100" relative="1" as="geometry">
            <mxPoint x="153" y="217" as="sourcePoint" />
            <mxPoint x="288" y="217" as="targetPoint" />
          </mxGeometry>
        </mxCell>
        <mxCell id="72" value="" style="shape=waypoint;sketch=0;fillStyle=solid;size=6;pointerEvents=1;points=[];fillColor=none;resizable=0;rotatable=0;perimeter=centerPerimeter;snapToPoint=1;strokeWidth=2;" vertex="1" parent="2">
          <mxGeometry x="187" y="206.75" width="20" height="20" as="geometry" />
        </mxCell>
        <mxCell id="73" value="Q&lt;sub&gt;6&lt;/sub&gt;" style="text;html=1;align=center;verticalAlign=middle;resizable=0;points=[];autosize=1;strokeColor=none;fillColor=none;fontSize=20;fontStyle=1;rounded=0;strokeWidth=2;" vertex="1" parent="2">
          <mxGeometry x="397" y="322.5" width="50" height="40" as="geometry" />
        </mxCell>
        <mxCell id="74" value="" style="pointerEvents=1;verticalLabelPosition=middle;shadow=0;dashed=0;align=left;html=1;verticalAlign=top;shape=mxgraph.electrical.capacitors.capacitor_2;spacing=0;labelPosition=center;spacingTop=10;spacingLeft=25;fillColor=none;rotation=90;strokeWidth=2;" vertex="1" parent="2">
          <mxGeometry x="412" y="299.75" width="60" height="20" as="geometry" />
        </mxCell>
        <mxCell id="75" value="" style="pointerEvents=1;verticalLabelPosition=middle;shadow=0;dashed=0;align=left;html=1;verticalAlign=top;shape=mxgraph.electrical.capacitors.capacitor_1;labelPosition=center;spacingBottom=0;spacingLeft=25;direction=east;spacing=0;spacingTop=10;points=[[0,0.5,0,0,0],[0.5,0,0,0,-3],[0.5,1,0,0,2],[1,0.5,0,0,0]];fillColor=none;rotation=90;strokeWidth=2;" vertex="1" parent="2">
          <mxGeometry x="472" y="301.5" width="60" height="20" as="geometry" />
        </mxCell>
        <mxCell id="76" value="" style="shape=waypoint;sketch=0;fillStyle=solid;size=6;pointerEvents=1;points=[];fillColor=none;resizable=0;rotatable=0;perimeter=centerPerimeter;snapToPoint=1;strokeWidth=2;" vertex="1" parent="2">
          <mxGeometry x="458" y="419.5" width="20" height="20" as="geometry" />
        </mxCell>
        <mxCell id="77" value="" style="edgeStyle=orthogonalEdgeStyle;orthogonalLoop=1;jettySize=auto;html=1;rounded=0;exitX=1;exitY=0.5;exitDx=0;exitDy=0;exitPerimeter=0;entryX=0.667;entryY=0.587;entryDx=0;entryDy=0;entryPerimeter=0;endArrow=none;startFill=0;strokeWidth=2;" edge="1" parent="2" source="75" target="76">
          <mxGeometry width="100" relative="1" as="geometry">
            <mxPoint x="462" y="389.75" as="sourcePoint" />
            <mxPoint x="478" y="429.5" as="targetPoint" />
            <Array as="points">
              <mxPoint x="502" y="430" />
            </Array>
          </mxGeometry>
        </mxCell>
        <mxCell id="78" value="" style="edgeStyle=elbowEdgeStyle;orthogonalLoop=1;jettySize=auto;html=1;rounded=0;exitX=1;exitY=1;exitDx=0;exitDy=0;entryX=0.5;entryY=0.512;entryDx=0;entryDy=0;entryPerimeter=0;endArrow=none;startFill=0;elbow=vertical;strokeWidth=2;" edge="1" parent="2" source="179">
          <mxGeometry width="100" relative="1" as="geometry">
            <mxPoint x="436" y="399.75" as="sourcePoint" />
            <mxPoint x="472" y="429.5" as="targetPoint" />
          </mxGeometry>
        </mxCell>
        <mxCell id="79" value="" style="edgeStyle=orthogonalEdgeStyle;orthogonalLoop=1;jettySize=auto;html=1;rounded=0;exitDx=0;exitDy=0;exitPerimeter=0;entryX=0.566;entryY=0.596;entryDx=0;entryDy=0;entryPerimeter=0;elbow=vertical;endArrow=none;startFill=0;strokeWidth=2;" edge="1" parent="2" source="86">
          <mxGeometry width="100" relative="1" as="geometry">
            <mxPoint x="432" y="269.75" as="sourcePoint" />
            <mxPoint x="468" y="280" as="targetPoint" />
            <Array as="points">
              <mxPoint x="442" y="279.75" />
              <mxPoint x="468" y="279.75" />
            </Array>
          </mxGeometry>
        </mxCell>
        <mxCell id="80" value="" style="edgeStyle=orthogonalEdgeStyle;orthogonalLoop=1;jettySize=auto;html=1;rounded=0;exitX=0;exitY=0.5;exitDx=0;exitDy=0;exitPerimeter=0;entryX=0.606;entryY=0.408;entryDx=0;entryDy=0;entryPerimeter=0;elbow=vertical;endArrow=none;startFill=0;strokeWidth=2;" edge="1" parent="2" source="75" target="86">
          <mxGeometry width="100" relative="1" as="geometry">
            <mxPoint x="482" y="273.5" as="sourcePoint" />
            <mxPoint x="478" y="280.25" as="targetPoint" />
            <Array as="points">
              <mxPoint x="502" y="280" />
            </Array>
          </mxGeometry>
        </mxCell>
        <mxCell id="81" value="" style="edgeStyle=elbowEdgeStyle;orthogonalLoop=1;jettySize=auto;html=1;rounded=0;endArrow=none;startFill=0;exitX=0.532;exitY=1.003;exitDx=0;exitDy=0;exitPerimeter=0;jumpStyle=arc;entryX=0.631;entryY=0.447;entryDx=0;entryDy=0;entryPerimeter=0;strokeWidth=2;" edge="1" parent="2" source="76" target="82">
          <mxGeometry width="100" relative="1" as="geometry">
            <mxPoint x="565" y="288.75" as="sourcePoint" />
            <mxPoint x="492" y="439.75" as="targetPoint" />
          </mxGeometry>
        </mxCell>
        <mxCell id="82" value="" style="shape=waypoint;sketch=0;fillStyle=solid;size=6;pointerEvents=1;points=[];fillColor=none;resizable=0;rotatable=0;perimeter=centerPerimeter;snapToPoint=1;strokeWidth=2;" vertex="1" parent="2">
          <mxGeometry x="458" y="439.5" width="20" height="20" as="geometry" />
        </mxCell>
        <mxCell id="83" value="" style="edgeStyle=elbowEdgeStyle;orthogonalLoop=1;jettySize=auto;html=1;rounded=0;exitX=1;exitY=0.5;exitDx=0;exitDy=0;entryX=1;entryY=0;entryDx=0;entryDy=0;endArrow=none;startFill=0;elbow=vertical;exitPerimeter=0;strokeWidth=2;" edge="1" parent="2" source="74" target="179">
          <mxGeometry width="100" relative="1" as="geometry">
            <mxPoint x="452" y="439.75" as="sourcePoint" />
            <mxPoint x="482" y="439.5" as="targetPoint" />
          </mxGeometry>
        </mxCell>
        <mxCell id="84" value="" style="edgeStyle=elbowEdgeStyle;orthogonalLoop=1;jettySize=auto;html=1;rounded=0;entryX=0.512;entryY=0.69;entryDx=0;entryDy=0;entryPerimeter=0;endArrow=none;startFill=0;exitDx=0;exitDy=0;jumpStyle=arc;exitX=0.515;exitY=0.641;exitPerimeter=0;strokeWidth=2;" edge="1" parent="2" source="39" target="82">
          <mxGeometry width="100" relative="1" as="geometry">
            <mxPoint x="427.5" y="490" as="sourcePoint" />
            <mxPoint x="518.5" y="490" as="targetPoint" />
          </mxGeometry>
        </mxCell>
        <mxCell id="85" value="" style="edgeStyle=orthogonalEdgeStyle;orthogonalLoop=1;jettySize=auto;html=1;rounded=0;exitX=0;exitY=0.5;exitDx=0;exitDy=0;exitPerimeter=0;entryDx=0;entryDy=0;entryPerimeter=0;elbow=vertical;endArrow=none;startFill=0;strokeWidth=2;" edge="1" parent="2" source="74" target="86">
          <mxGeometry width="100" relative="1" as="geometry">
            <mxPoint x="442" y="280" as="sourcePoint" />
            <mxPoint x="468" y="280" as="targetPoint" />
            <Array as="points" />
          </mxGeometry>
        </mxCell>
        <mxCell id="86" value="" style="shape=waypoint;sketch=0;fillStyle=solid;size=6;pointerEvents=1;points=[];fillColor=none;resizable=0;rotatable=0;perimeter=centerPerimeter;snapToPoint=1;strokeWidth=2;" vertex="1" parent="2">
          <mxGeometry x="460" y="270" width="20" height="20" as="geometry" />
        </mxCell>
        <mxCell id="87" value="" style="edgeStyle=elbowEdgeStyle;orthogonalLoop=1;jettySize=auto;html=1;rounded=0;endArrow=none;startFill=0;exitDx=0;exitDy=0;jumpStyle=arc;exitX=0.412;exitY=0.138;exitPerimeter=0;strokeWidth=2;" edge="1" parent="2" source="86" target="88">
          <mxGeometry width="100" relative="1" as="geometry">
            <mxPoint x="389" y="460" as="sourcePoint" />
            <mxPoint x="478" y="459" as="targetPoint" />
          </mxGeometry>
        </mxCell>
        <mxCell id="88" value="" style="shape=waypoint;sketch=0;fillStyle=solid;size=6;pointerEvents=1;points=[];fillColor=none;resizable=0;rotatable=0;perimeter=centerPerimeter;snapToPoint=1;strokeWidth=2;" vertex="1" parent="2">
          <mxGeometry x="460" y="249" width="20" height="20" as="geometry" />
        </mxCell>
        <mxCell id="89" value="" style="edgeStyle=elbowEdgeStyle;orthogonalLoop=1;jettySize=auto;html=1;rounded=0;endArrow=none;startFill=0;exitDx=0;exitDy=0;jumpStyle=arc;exitX=0.103;exitY=0.801;exitPerimeter=0;entryX=0.656;entryY=0.624;entryDx=0;entryDy=0;entryPerimeter=0;strokeWidth=2;" edge="1" parent="2" source="88" target="37">
          <mxGeometry width="100" relative="1" as="geometry">
            <mxPoint x="478" y="290" as="sourcePoint" />
            <mxPoint x="478" y="269" as="targetPoint" />
          </mxGeometry>
        </mxCell>
        <mxCell id="90" value="" style="edgeStyle=orthogonalEdgeStyle;orthogonalLoop=1;jettySize=auto;html=1;rounded=0;endArrow=none;startFill=0;jumpStyle=arc;entryX=0.662;entryY=0.548;entryDx=0;entryDy=0;entryPerimeter=0;exitX=0;exitY=0.5;exitDx=0;exitDy=0;exitPerimeter=0;strokeWidth=2;" edge="1" parent="2" source="53" target="35">
          <mxGeometry width="100" relative="1" as="geometry">
            <mxPoint x="508" y="217" as="sourcePoint" />
            <mxPoint x="488" y="279" as="targetPoint" />
          </mxGeometry>
        </mxCell>
        <mxCell id="91" value="" style="edgeStyle=elbowEdgeStyle;orthogonalLoop=1;jettySize=auto;html=1;rounded=0;endArrow=none;startFill=0;jumpStyle=arc;entryX=0.627;entryY=0.544;entryDx=0;entryDy=0;entryPerimeter=0;elbow=vertical;exitX=0;exitY=0.5;exitDx=0;exitDy=0;exitPerimeter=0;strokeWidth=2;" edge="1" parent="2" target="88">
          <mxGeometry width="100" relative="1" as="geometry">
            <mxPoint x="518" y="259" as="sourcePoint" />
            <mxPoint x="468" y="257.75" as="targetPoint" />
          </mxGeometry>
        </mxCell>
        <mxCell id="92" value="" style="shape=waypoint;sketch=0;fillStyle=solid;size=6;pointerEvents=1;points=[];fillColor=none;resizable=0;rotatable=0;perimeter=centerPerimeter;snapToPoint=1;strokeWidth=2;" vertex="1" parent="2">
          <mxGeometry x="703" y="205.75" width="20" height="20" as="geometry" />
        </mxCell>
        <mxCell id="93" value="" style="shape=waypoint;sketch=0;fillStyle=solid;size=6;pointerEvents=1;points=[];fillColor=none;resizable=0;rotatable=0;perimeter=centerPerimeter;snapToPoint=1;strokeWidth=2;" vertex="1" parent="2">
          <mxGeometry x="863" y="250.25" width="20" height="20" as="geometry" />
        </mxCell>
        <mxCell id="94" value="" style="edgeStyle=elbowEdgeStyle;orthogonalLoop=1;jettySize=auto;html=1;rounded=0;endArrow=none;startFill=0;jumpStyle=arc;elbow=vertical;entryX=1;entryY=1;entryDx=0;entryDy=0;entryPerimeter=0;strokeWidth=2;" edge="1" parent="2" source="92" target="55">
          <mxGeometry width="100" relative="1" as="geometry">
            <mxPoint x="703" y="226.75" as="sourcePoint" />
            <mxPoint x="667" y="226.75" as="targetPoint" />
            <Array as="points">
              <mxPoint x="688" y="216" />
            </Array>
          </mxGeometry>
        </mxCell>
        <mxCell id="95" value="" style="edgeStyle=elbowEdgeStyle;orthogonalLoop=1;jettySize=auto;html=1;rounded=0;endArrow=none;startFill=0;jumpStyle=arc;elbow=vertical;entryX=1;entryY=1;entryDx=0;entryDy=0;exitX=0.634;exitY=0.467;exitDx=0;exitDy=0;exitPerimeter=0;strokeWidth=2;" edge="1" parent="2" source="92" target="148">
          <mxGeometry width="100" relative="1" as="geometry">
            <mxPoint x="723" y="226" as="sourcePoint" />
            <mxPoint x="668" y="226" as="targetPoint" />
          </mxGeometry>
        </mxCell>
        <mxCell id="96" value="" style="edgeStyle=elbowEdgeStyle;orthogonalLoop=1;jettySize=auto;html=1;rounded=0;endArrow=none;startFill=0;jumpStyle=arc;elbow=vertical;entryX=0.607;entryY=0.423;entryDx=0;entryDy=0;exitX=1;exitY=0;exitDx=0;exitDy=0;entryPerimeter=0;strokeWidth=2;" edge="1" parent="2" source="157" target="92">
          <mxGeometry width="100" relative="1" as="geometry">
            <mxPoint x="738" y="270" as="sourcePoint" />
            <mxPoint x="723" y="194.25" as="targetPoint" />
          </mxGeometry>
        </mxCell>
        <mxCell id="97" value="" style="edgeStyle=elbowEdgeStyle;orthogonalLoop=1;jettySize=auto;html=1;rounded=0;endArrow=none;startFill=0;jumpStyle=arc;elbow=vertical;exitX=0.529;exitY=0.355;exitDx=0;exitDy=0;exitPerimeter=0;entryX=1;entryY=1;entryDx=0;entryDy=0;entryPerimeter=0;strokeWidth=2;" edge="1" parent="2" source="93" target="56">
          <mxGeometry x="0.3636" width="100" relative="1" as="geometry">
            <mxPoint x="884" y="253.5" as="sourcePoint" />
            <mxPoint x="668" y="260" as="targetPoint" />
            <Array as="points">
              <mxPoint x="748" y="260" />
            </Array>
            <mxPoint as="offset" />
          </mxGeometry>
        </mxCell>
        <mxCell id="98" value="" style="edgeStyle=elbowEdgeStyle;orthogonalLoop=1;jettySize=auto;html=1;rounded=0;endArrow=none;startFill=0;jumpStyle=arc;elbow=vertical;entryX=1;entryY=1;entryDx=0;entryDy=0;exitX=0.445;exitY=0.389;exitDx=0;exitDy=0;exitPerimeter=0;strokeWidth=2;" edge="1" parent="2" source="93" target="190">
          <mxGeometry width="100" relative="1" as="geometry">
            <mxPoint x="863" y="224.25" as="sourcePoint" />
            <mxPoint x="808" y="224.25" as="targetPoint" />
            <Array as="points">
              <mxPoint x="838" y="224.25" />
            </Array>
          </mxGeometry>
        </mxCell>
        <mxCell id="99" value="" style="edgeStyle=elbowEdgeStyle;orthogonalLoop=1;jettySize=auto;html=1;rounded=0;endArrow=none;startFill=0;jumpStyle=arc;elbow=vertical;entryX=0.91;entryY=0.682;entryDx=0;entryDy=0;exitX=1;exitY=0;exitDx=0;exitDy=0;entryPerimeter=0;strokeWidth=2;" edge="1" parent="2" source="199" target="93">
          <mxGeometry width="100" relative="1" as="geometry">
            <mxPoint x="883" y="270" as="sourcePoint" />
            <mxPoint x="883" y="187" as="targetPoint" />
            <Array as="points">
              <mxPoint x="848" y="234.25" />
            </Array>
          </mxGeometry>
        </mxCell>
        <mxCell id="100" value="" style="shape=waypoint;sketch=0;fillStyle=solid;size=6;pointerEvents=1;points=[];fillColor=none;resizable=0;rotatable=0;perimeter=centerPerimeter;snapToPoint=1;strokeWidth=2;" vertex="1" parent="2">
          <mxGeometry x="703" y="440" width="20" height="20" as="geometry" />
        </mxCell>
        <mxCell id="101" value="" style="shape=waypoint;sketch=0;fillStyle=solid;size=6;pointerEvents=1;points=[];fillColor=none;resizable=0;rotatable=0;perimeter=centerPerimeter;snapToPoint=1;strokeWidth=2;" vertex="1" parent="2">
          <mxGeometry x="863" y="439.5" width="20" height="20" as="geometry" />
        </mxCell>
        <mxCell id="102" value="" style="edgeStyle=elbowEdgeStyle;orthogonalLoop=1;jettySize=auto;html=1;rounded=0;endArrow=none;startFill=0;exitDx=0;exitDy=0;jumpStyle=arc;exitX=0.342;exitY=0.529;exitPerimeter=0;strokeWidth=2;" edge="1" parent="2" source="82" target="100">
          <mxGeometry width="100" relative="1" as="geometry">
            <mxPoint x="548" y="476.75" as="sourcePoint" />
            <mxPoint x="637" y="475.75" as="targetPoint" />
          </mxGeometry>
        </mxCell>
        <mxCell id="103" value="" style="edgeStyle=elbowEdgeStyle;orthogonalLoop=1;jettySize=auto;html=1;rounded=0;endArrow=none;startFill=0;exitDx=0;exitDy=0;jumpStyle=arc;exitX=1;exitY=1;strokeWidth=2;" edge="1" parent="2" source="157">
          <mxGeometry width="100" relative="1" as="geometry">
            <mxPoint x="478" y="459" as="sourcePoint" />
            <mxPoint x="713" y="450" as="targetPoint" />
          </mxGeometry>
        </mxCell>
        <mxCell id="104" value="" style="edgeStyle=elbowEdgeStyle;orthogonalLoop=1;jettySize=auto;html=1;rounded=0;endArrow=none;startFill=0;exitDx=0;exitDy=0;jumpStyle=arc;exitX=0.654;exitY=0.858;exitPerimeter=0;entryX=0.321;entryY=0.15;entryDx=0;entryDy=0;entryPerimeter=0;strokeWidth=2;" edge="1" parent="2" source="100" target="101">
          <mxGeometry width="100" relative="1" as="geometry">
            <mxPoint x="750.5" y="496.25" as="sourcePoint" />
            <mxPoint x="995.5" y="497.25" as="targetPoint" />
          </mxGeometry>
        </mxCell>
        <mxCell id="105" value="" style="edgeStyle=elbowEdgeStyle;orthogonalLoop=1;jettySize=auto;html=1;rounded=0;endArrow=none;startFill=0;exitDx=0;exitDy=0;jumpStyle=arc;exitX=1;exitY=1;entryX=0.404;entryY=0.342;entryDx=0;entryDy=0;entryPerimeter=0;strokeWidth=2;" edge="1" parent="2" source="199" target="101">
          <mxGeometry width="100" relative="1" as="geometry">
            <mxPoint x="723" y="460" as="sourcePoint" />
            <mxPoint x="883" y="459" as="targetPoint" />
          </mxGeometry>
        </mxCell>
        <mxCell id="106" value="" style="shape=waypoint;sketch=0;fillStyle=solid;size=6;pointerEvents=1;points=[];fillColor=none;resizable=0;rotatable=0;perimeter=centerPerimeter;snapToPoint=1;strokeWidth=2;" vertex="1" parent="2">
          <mxGeometry x="940" y="440.25" width="20" height="20" as="geometry" />
        </mxCell>
        <mxCell id="107" value="" style="edgeStyle=elbowEdgeStyle;orthogonalLoop=1;jettySize=auto;html=1;rounded=0;endArrow=none;startFill=0;exitDx=0;exitDy=0;jumpStyle=arc;exitX=0.696;exitY=0.633;exitPerimeter=0;strokeWidth=2;" edge="1" parent="2" source="101">
          <mxGeometry width="100" relative="1" as="geometry">
            <mxPoint x="723" y="460" as="sourcePoint" />
            <mxPoint x="948" y="450" as="targetPoint" />
          </mxGeometry>
        </mxCell>
        <mxCell id="108" value="" style="edgeStyle=elbowEdgeStyle;orthogonalLoop=1;jettySize=auto;html=1;rounded=0;endArrow=none;startFill=0;exitDx=0;exitDy=0;jumpStyle=arc;exitX=1;exitY=0.5;exitPerimeter=0;entryX=0.404;entryY=0.15;entryDx=0;entryDy=0;entryPerimeter=0;strokeWidth=2;" edge="1" parent="2" source="59" target="106">
          <mxGeometry width="100" relative="1" as="geometry">
            <mxPoint x="883" y="459" as="sourcePoint" />
            <mxPoint x="958" y="460" as="targetPoint" />
          </mxGeometry>
        </mxCell>
        <mxCell id="109" value="" style="edgeStyle=elbowEdgeStyle;orthogonalLoop=1;jettySize=auto;html=1;rounded=0;endArrow=none;startFill=0;jumpStyle=arc;exitDx=0;exitDy=0;exitPerimeter=0;entryX=0;entryY=0.5;entryDx=0;entryDy=0;strokeWidth=2;" edge="1" parent="2" source="121" target="21">
          <mxGeometry width="100" relative="1" as="geometry">
            <mxPoint x="883" y="460" as="sourcePoint" />
            <mxPoint x="958" y="460" as="targetPoint" />
          </mxGeometry>
        </mxCell>
        <mxCell id="110" value="" style="shape=waypoint;sketch=0;fillStyle=solid;size=6;pointerEvents=1;points=[];fillColor=none;resizable=0;rotatable=0;perimeter=centerPerimeter;snapToPoint=1;strokeWidth=2;" vertex="1" parent="2">
          <mxGeometry x="863" y="50" width="20" height="20" as="geometry" />
        </mxCell>
        <mxCell id="111" value="" style="edgeStyle=elbowEdgeStyle;orthogonalLoop=1;jettySize=auto;html=1;rounded=0;endArrow=none;startFill=0;jumpStyle=arc;exitX=1;exitY=0;exitDx=0;exitDy=0;entryX=0.3;entryY=0.5;entryDx=0;entryDy=0;entryPerimeter=0;strokeWidth=2;" edge="1" parent="2" source="190" target="110">
          <mxGeometry width="100" relative="1" as="geometry">
            <mxPoint x="848" y="97.25" as="sourcePoint" />
            <mxPoint x="848" y="60.25" as="targetPoint" />
          </mxGeometry>
        </mxCell>
        <mxCell id="112" value="" style="edgeStyle=elbowEdgeStyle;orthogonalLoop=1;jettySize=auto;html=1;rounded=0;endArrow=none;startFill=0;jumpStyle=arc;exitX=0.12;exitY=0.46;exitDx=0;exitDy=0;entryX=0.66;entryY=0.52;entryDx=0;entryDy=0;entryPerimeter=0;exitPerimeter=0;strokeWidth=2;" edge="1" parent="2" source="110" target="146">
          <mxGeometry width="100" relative="1" as="geometry">
            <mxPoint x="733" y="117" as="sourcePoint" />
            <mxPoint x="733" y="80" as="targetPoint" />
          </mxGeometry>
        </mxCell>
        <mxCell id="113" value="" style="shape=waypoint;sketch=0;fillStyle=solid;size=6;pointerEvents=1;points=[];fillColor=none;resizable=0;rotatable=0;perimeter=centerPerimeter;snapToPoint=1;strokeWidth=2;" vertex="1" parent="2">
          <mxGeometry x="940" y="50" width="20" height="20" as="geometry" />
        </mxCell>
        <mxCell id="114" value="" style="edgeStyle=elbowEdgeStyle;orthogonalLoop=1;jettySize=auto;html=1;rounded=0;endArrow=none;startFill=0;jumpStyle=arc;exitX=0.175;exitY=0.15;exitDx=0;exitDy=0;entryX=0.417;entryY=0.338;entryDx=0;entryDy=0;entryPerimeter=0;exitPerimeter=0;strokeWidth=2;" edge="1" parent="2" source="113" target="110">
          <mxGeometry width="100" relative="1" as="geometry">
            <mxPoint x="883" y="70" as="sourcePoint" />
            <mxPoint x="723" y="70" as="targetPoint" />
          </mxGeometry>
        </mxCell>
        <mxCell id="115" value="" style="edgeStyle=elbowEdgeStyle;orthogonalLoop=1;jettySize=auto;html=1;rounded=0;endArrow=none;startFill=0;jumpStyle=arc;exitDx=0;exitDy=0;entryX=0.181;entryY=0.964;entryDx=0;entryDy=0;entryPerimeter=0;exitPerimeter=0;strokeWidth=2;" edge="1" parent="2" source="118" target="113">
          <mxGeometry width="100" relative="1" as="geometry">
            <mxPoint x="1050" y="79.75999999999999" as="sourcePoint" />
            <mxPoint x="975" y="79.75999999999999" as="targetPoint" />
          </mxGeometry>
        </mxCell>
        <mxCell id="116" value="" style="edgeStyle=elbowEdgeStyle;orthogonalLoop=1;jettySize=auto;html=1;rounded=0;endArrow=none;startFill=0;jumpStyle=arc;exitX=0;exitY=0.5;exitDx=0;exitDy=0;entryX=1;entryY=0.5;entryDx=0;entryDy=0;entryPerimeter=0;strokeWidth=2;" edge="1" parent="2" source="20" target="129">
          <mxGeometry width="100" relative="1" as="geometry">
            <mxPoint x="1125.5" y="79.75999999999999" as="sourcePoint" />
            <mxPoint x="1098.5" y="79.75999999999999" as="targetPoint" />
          </mxGeometry>
        </mxCell>
        <mxCell id="117" value="" style="edgeStyle=elbowEdgeStyle;orthogonalLoop=1;jettySize=auto;html=1;rounded=0;endArrow=none;startFill=0;jumpStyle=arc;exitX=0;exitY=0.5;exitDx=0;exitDy=0;entryDx=0;entryDy=0;entryPerimeter=0;exitPerimeter=0;strokeWidth=2;" edge="1" parent="2" source="129" target="118">
          <mxGeometry width="100" relative="1" as="geometry">
            <mxPoint x="1025" y="60" as="sourcePoint" />
            <mxPoint x="948" y="60" as="targetPoint" />
          </mxGeometry>
        </mxCell>
        <mxCell id="118" value="" style="shape=waypoint;sketch=0;fillStyle=solid;size=6;pointerEvents=1;points=[];fillColor=none;resizable=0;rotatable=0;perimeter=centerPerimeter;snapToPoint=1;strokeWidth=2;" vertex="1" parent="2">
          <mxGeometry x="988" y="50" width="20" height="20" as="geometry" />
        </mxCell>
        <mxCell id="119" value="" style="edgeStyle=elbowEdgeStyle;orthogonalLoop=1;jettySize=auto;html=1;rounded=0;endArrow=none;startFill=0;jumpStyle=arc;exitDx=0;exitDy=0;entryX=0.5;entryY=0;entryDx=0;entryDy=0;entryPerimeter=0;exitPerimeter=0;exitX=0.435;exitY=0.635;strokeWidth=2;" edge="1" parent="2" source="118" target="127">
          <mxGeometry width="100" relative="1" as="geometry">
            <mxPoint x="1008" y="70" as="sourcePoint" />
            <mxPoint x="958" y="70" as="targetPoint" />
          </mxGeometry>
        </mxCell>
        <mxCell id="120" value="" style="edgeStyle=elbowEdgeStyle;orthogonalLoop=1;jettySize=auto;html=1;rounded=0;endArrow=none;startFill=0;jumpStyle=arc;exitX=0.9;exitY=0.408;exitDx=0;exitDy=0;exitPerimeter=0;entryDx=0;entryDy=0;strokeWidth=2;" edge="1" parent="2" source="106" target="121">
          <mxGeometry width="100" relative="1" as="geometry">
            <mxPoint x="948" y="450" as="sourcePoint" />
            <mxPoint x="1085" y="450" as="targetPoint" />
          </mxGeometry>
        </mxCell>
        <mxCell id="121" value="" style="shape=waypoint;sketch=0;fillStyle=solid;size=6;pointerEvents=1;points=[];fillColor=none;resizable=0;rotatable=0;perimeter=centerPerimeter;snapToPoint=1;strokeWidth=2;" vertex="1" parent="2">
          <mxGeometry x="989" y="440.25" width="20" height="20" as="geometry" />
        </mxCell>
        <mxCell id="122" value="" style="edgeStyle=elbowEdgeStyle;orthogonalLoop=1;jettySize=auto;html=1;rounded=0;endArrow=none;startFill=0;exitDx=0;exitDy=0;jumpStyle=arc;exitX=0.544;exitY=1.005;exitPerimeter=0;entryX=0.471;entryY=0.37;entryDx=0;entryDy=0;entryPerimeter=0;strokeWidth=2;" edge="1" parent="2" source="127" target="121">
          <mxGeometry width="100" relative="1" as="geometry">
            <mxPoint x="958" y="280" as="sourcePoint" />
            <mxPoint x="958" y="460" as="targetPoint" />
          </mxGeometry>
        </mxCell>
        <mxCell id="123" value="V&lt;sub&gt;High&lt;/sub&gt;" style="text;html=1;align=center;verticalAlign=middle;resizable=0;points=[];autosize=1;strokeColor=none;fillColor=none;fontSize=20;fontStyle=1;rounded=0;strokeWidth=2;" vertex="1" parent="2">
          <mxGeometry x="1057.5" width="70" height="40" as="geometry" />
        </mxCell>
        <mxCell id="124" value="C&lt;sub&gt;2Low&lt;/sub&gt;" style="text;html=1;align=center;verticalAlign=middle;resizable=0;points=[];autosize=1;strokeColor=none;fillColor=none;fontSize=20;fontStyle=1;rounded=0;strokeWidth=2;" vertex="1" parent="2">
          <mxGeometry x="431" y="314.0000000000001" width="80" height="40" as="geometry" />
        </mxCell>
        <mxCell id="125" value="" style="edgeStyle=elbowEdgeStyle;orthogonalLoop=1;jettySize=auto;html=1;rounded=0;endArrow=none;startFill=0;exitDx=0;exitDy=0;jumpStyle=arc;exitX=0.476;exitY=0.661;exitPerimeter=0;entryX=0.5;entryY=0;entryDx=0;entryDy=0;strokeWidth=2;" edge="1" parent="2" source="100" target="132">
          <mxGeometry width="100" relative="1" as="geometry">
            <mxPoint x="598" y="501.85" as="sourcePoint" />
            <mxPoint x="713" y="463" as="targetPoint" />
          </mxGeometry>
        </mxCell>
        <mxCell id="126" value="+" style="text;html=1;align=center;verticalAlign=middle;resizable=0;points=[];autosize=1;strokeColor=none;fillColor=none;fontStyle=1;rounded=0;" vertex="1" parent="2">
          <mxGeometry x="983" y="209.92999999999995" width="30" height="30" as="geometry" />
        </mxCell>
        <mxCell id="127" value="V" style="verticalLabelPosition=middle;shadow=0;dashed=0;align=center;html=1;verticalAlign=middle;strokeWidth=2;shape=ellipse;aspect=fixed;fontSize=20;spacing=0;spacingBottom=2;points=[[0,0.5,0,0,0],[0.5,0,0,0,0],[0.5,1,0,0,0],[1,0.5,0,0,0]];fillColor=none;" vertex="1" parent="2">
          <mxGeometry x="978" y="219.92999999999995" width="40" height="40" as="geometry" />
        </mxCell>
        <mxCell id="128" value="+" style="text;html=1;align=center;verticalAlign=middle;resizable=0;points=[];autosize=1;strokeColor=none;fillColor=none;fontStyle=1;rounded=0;" vertex="1" parent="2">
          <mxGeometry x="1042" y="43" width="30" height="30" as="geometry" />
        </mxCell>
        <mxCell id="129" value="A" style="verticalLabelPosition=middle;shadow=0;dashed=0;align=center;html=1;verticalAlign=middle;strokeWidth=2;shape=ellipse;aspect=fixed;fontSize=20;spacing=0;spacingBottom=2;spacingTop=0;points=[[0,0.5,0,0,0],[0.5,0,0,0,0],[0.5,1,0,0,0],[1,0.5,0,0,0]];fillColor=none;" vertex="1" parent="2">
          <mxGeometry x="1025" y="40" width="40" height="40" as="geometry" />
        </mxCell>
        <mxCell id="130" value="+" style="text;html=1;align=center;verticalAlign=middle;resizable=0;points=[];autosize=1;strokeColor=none;fillColor=none;fontStyle=1;rounded=0;" vertex="1" parent="2">
          <mxGeometry x="364" y="320" width="30" height="30" as="geometry" />
        </mxCell>
        <mxCell id="131" value="V" style="verticalLabelPosition=middle;shadow=0;dashed=0;align=center;html=1;verticalAlign=middle;strokeWidth=2;shape=ellipse;aspect=fixed;fontSize=20;spacing=0;spacingBottom=2;points=[[0,0.5,0,0,0],[0.5,0,0,0,0],[0.5,1,0,0,0],[1,0.5,0,0,0]];fillColor=none;" vertex="1" parent="2">
          <mxGeometry x="359" y="330" width="40" height="40" as="geometry" />
        </mxCell>
        <mxCell id="132" value="" style="shape=stencil(pZPZDoIwEEW/pq+mtOLyaFD/o8AojdiSUre/tzCgVmji8kIy9zJnbiZTwpO6EBUQRgvC14QxRt3HlRe/FHUFmUXtLIwUaQno1NboA1xkbjuCVAUYaRuXbwhdkYZBCU8yrZSDSK1qz3nxHUxI5XrpFWF0EuOYW1djVbkJR7BgUI1QJWz7NtIpoak8SUV22Bt9UvmwK+jttIER42HLssSNjOTpf6pEs6uB0dtHfYbnBiI6toBxdE8opQoT4k8Ifobp94C3CLN/I/iA+Q8Rpt8T/AgLD7D8IQL7nNBeYeBQ3KMNnVjbNrjRVsWH3gp3);whiteSpace=wrap;html=1;aspect=fixed;strokeWidth=2;" vertex="1" parent="2">
          <mxGeometry x="693" y="465" width="40" height="40" as="geometry" />
        </mxCell>
        <mxCell id="133" value="" style="edgeStyle=orthogonalEdgeStyle;orthogonalLoop=1;jettySize=auto;html=1;rounded=0;endArrow=none;startFill=0;jumpStyle=arc;exitDx=0;exitDy=0;entryX=0.5;entryY=0;entryDx=0;entryDy=0;entryPerimeter=0;exitX=1;exitY=0.5;strokeWidth=2;" edge="1" parent="2" source="20" target="167">
          <mxGeometry width="100" relative="1" as="geometry">
            <mxPoint x="1142.52" y="51.25" as="sourcePoint" />
            <mxPoint x="1157.5" y="219.9300000000003" as="targetPoint" />
          </mxGeometry>
        </mxCell>
        <mxCell id="134" value="" style="edgeStyle=orthogonalEdgeStyle;orthogonalLoop=1;jettySize=auto;html=1;rounded=0;endArrow=none;startFill=0;jumpStyle=arc;exitDx=0;exitDy=0;entryX=1;entryY=0.5;entryDx=0;entryDy=0;exitX=0.5;exitY=1;strokeWidth=2;exitPerimeter=0;" edge="1" parent="2" source="167" target="21">
          <mxGeometry width="100" relative="1" as="geometry">
            <mxPoint x="1157.5" y="279.9300000000003" as="sourcePoint" />
            <mxPoint x="1263" y="465" as="targetPoint" />
          </mxGeometry>
        </mxCell>
        <mxCell id="135" value="R" style="text;html=1;align=center;verticalAlign=middle;resizable=0;points=[];autosize=1;strokeColor=none;fillColor=none;fontSize=20;fontStyle=1;rounded=0;strokeWidth=2;" vertex="1" parent="2">
          <mxGeometry y="308.25" width="40" height="40" as="geometry" />
        </mxCell>
        <mxCell id="136" value="" style="edgeStyle=orthogonalEdgeStyle;orthogonalLoop=1;jettySize=auto;html=1;rounded=0;entryX=0;entryY=0.5;entryDx=0;entryDy=0;endArrow=none;startFill=0;exitDx=0;exitDy=0;jumpStyle=arc;strokeWidth=2;exitX=0.517;exitY=0.371;exitPerimeter=0;" edge="1" parent="2" source="168" target="17">
          <mxGeometry width="100" relative="1" as="geometry">
            <mxPoint x="63" y="310.75" as="sourcePoint" />
            <mxPoint x="298" y="227" as="targetPoint" />
            <Array as="points">
              <mxPoint x="53" y="217" />
            </Array>
          </mxGeometry>
        </mxCell>
        <mxCell id="137" value="" style="edgeStyle=orthogonalEdgeStyle;orthogonalLoop=1;jettySize=auto;html=1;rounded=0;entryX=0;entryY=0.5;entryDx=0;entryDy=0;endArrow=none;startFill=0;exitDx=0;exitDy=0;jumpStyle=arc;strokeWidth=2;exitX=0;exitY=0.5;exitPerimeter=0;" edge="1" parent="2" source="166" target="19">
          <mxGeometry width="100" relative="1" as="geometry">
            <mxPoint x="63" y="350.75" as="sourcePoint" />
            <mxPoint x="88" y="460.25" as="targetPoint" />
          </mxGeometry>
        </mxCell>
        <mxCell id="138" value="Q&lt;sub&gt;1&lt;/sub&gt;" style="text;html=1;align=center;verticalAlign=middle;resizable=0;points=[];autosize=1;strokeColor=none;fillColor=none;fontSize=20;fontStyle=1;rounded=0;" vertex="1" parent="2">
          <mxGeometry x="658" y="80" width="50" height="40" as="geometry" />
        </mxCell>
        <mxCell id="139" value="" style="ellipse;whiteSpace=wrap;html=1;fillColor=light-dark(#99C3B7,#99C3B7);strokeWidth=2;strokeColor=default;container=0;" vertex="1" parent="2">
          <mxGeometry x="679" y="110" width="57" height="57" as="geometry" />
        </mxCell>
        <mxCell id="140" value="" style="shape=stencil(rZRNbsMgEIVPw7bC4GZf0fYexJnEKAQsoEl7+2CPLYU4Rv7pxtK8Jz5mHmDCha9lA4TRmvBPwhij8RPLG5ZlX0rfQBVQu0qn5F4DOj44e4abOoSeoEwNToXW5V+EfpAWSQkXlTUmQpQ1PnEe/AiTysS19Bdh/fZ/ffX2jnUTd7hAAId6gSph37PBxRYwF1GZGoeLvazOJ2d/zOFlO41soxoZg32xV3jo8ykBmht1QGhlphFsBYKniGIWotLWQ+ZYoj6KolMn8uPiaB1kgj0qrfE6ZnZdlP6asbPhz0OkTbBdgiiXN/FE2H4BthNWIcr/RhS75cex6i2kXZRLEK8fyuBN3vdu2ejBdCr+8jvhDg==);html=1;verticalAlign=top;align=left;spacingTop=10;spacing=0;spacingLeft=25;fillColor=none;flipV=1;rotation=-90;aspect=fixed;strokeWidth=2;container=0;" vertex="1" parent="2">
          <mxGeometry x="713" y="133.25" width="20" height="10" as="geometry" />
        </mxCell>
        <mxCell id="141" value="" style="edgeStyle=orthogonalEdgeStyle;orthogonalLoop=1;jettySize=auto;html=1;rounded=0;endArrow=none;startFill=0;entryX=1;entryY=0.5;entryDx=0;entryDy=0;strokeWidth=2;" edge="1" parent="2" source="142">
          <mxGeometry width="100" relative="1" as="geometry">
            <mxPoint x="713" y="124" as="sourcePoint" />
            <mxPoint x="723" y="133" as="targetPoint" />
          </mxGeometry>
        </mxCell>
        <mxCell id="142" value="" style="shape=waypoint;sketch=0;fillStyle=solid;size=6;pointerEvents=1;points=[];fillColor=none;resizable=0;rotatable=0;perimeter=centerPerimeter;snapToPoint=1;strokeColor=default;strokeWidth=1;container=0;" vertex="1" parent="2">
          <mxGeometry x="703" y="107.25" width="20" height="20" as="geometry" />
        </mxCell>
        <mxCell id="143" value="" style="edgeStyle=orthogonalEdgeStyle;orthogonalLoop=1;jettySize=auto;html=1;rounded=0;exitX=0;exitY=0.5;exitDx=0;exitDy=0;endArrow=none;startFill=0;strokeWidth=2;" edge="1" parent="2" target="144">
          <mxGeometry width="100" relative="1" as="geometry">
            <mxPoint x="723" y="148" as="sourcePoint" />
            <mxPoint x="723" y="169" as="targetPoint" />
            <Array as="points">
              <mxPoint x="723" y="158" />
            </Array>
          </mxGeometry>
        </mxCell>
        <mxCell id="144" value="" style="shape=waypoint;sketch=0;fillStyle=solid;size=6;pointerEvents=1;points=[];fillColor=none;resizable=0;rotatable=0;perimeter=centerPerimeter;snapToPoint=1;strokeColor=default;strokeWidth=1;container=0;" vertex="1" parent="2">
          <mxGeometry x="703" y="148" width="20" height="20" as="geometry" />
        </mxCell>
        <mxCell id="145" value="" style="edgeStyle=orthogonalEdgeStyle;orthogonalLoop=1;jettySize=auto;html=1;rounded=0;entryX=0.5;entryY=0.5;entryDx=0;entryDy=0;entryPerimeter=0;endArrow=block;endFill=0;strokeWidth=2;" edge="1" parent="2" source="144">
          <mxGeometry width="100" relative="1" as="geometry">
            <mxPoint x="623" y="169" as="sourcePoint" />
            <mxPoint x="693" y="138" as="targetPoint" />
            <Array as="points">
              <mxPoint x="713" y="138" />
            </Array>
          </mxGeometry>
        </mxCell>
        <mxCell id="146" value="" style="shape=waypoint;sketch=0;fillStyle=solid;size=6;pointerEvents=1;points=[];fillColor=none;resizable=0;rotatable=0;perimeter=centerPerimeter;snapToPoint=1;strokeColor=none;" vertex="1" parent="2">
          <mxGeometry x="703" y="50" width="20" height="20" as="geometry" />
        </mxCell>
        <mxCell id="147" value="" style="edgeStyle=elbowEdgeStyle;orthogonalLoop=1;jettySize=auto;html=1;rounded=0;endArrow=none;startFill=0;jumpStyle=arc;exitX=1;exitY=0;exitDx=0;exitDy=0;entryX=0.56;entryY=0.63;entryDx=0;entryDy=0;entryPerimeter=0;strokeWidth=2;" edge="1" parent="2" source="148" target="146">
          <mxGeometry width="100" relative="1" as="geometry">
            <mxPoint x="728" y="90" as="sourcePoint" />
            <mxPoint x="813" y="66.53999999999996" as="targetPoint" />
          </mxGeometry>
        </mxCell>
        <mxCell id="148" value="" style="shape=stencil(xZXbboMwDIafJrdTTu24nej6Hin1RlSaoJAe9vYLhFYlLGgjVJMQkv3jL45jHMTyphQ1IIoviG0QpRy7lzNLb2a9KZoaCut9Z2Gk2FXglcYafYCL3Ns+RKoSjLStyt4RfnPftA/LC62Ug0itmoHyoDuYkMrF4quH9ct/9dbLytu1W+EIFoz3E+9FdPtrMBmCn4MlS2HvGw8LEUJY7jyxQrN8J4rDp9EntR9HRbUPbeAH4S7LqvJNMLGpWrTtMRJu8lGfIXboazxVrxuhkuqBQF5nIIZJBAj6P1kEtSDZ37MIECw9C8aTs+Dr5CxWM04kbC2anMWcvuCLI9LPdM5fxhdHZJOIbkxFJom7yGIzqAsbDbHO6y+/zvEN);whiteSpace=wrap;html=1;strokeWidth=2;movable=1;resizable=1;rotatable=1;deletable=1;editable=1;locked=0;connectable=1;" vertex="1" parent="2">
          <mxGeometry x="673" y="97.25" width="40" height="80" as="geometry" />
        </mxCell>
        <mxCell id="149" value="" style="ellipse;whiteSpace=wrap;html=1;fillColor=light-dark(#99C3B7,#99C3B7);strokeWidth=2;strokeColor=default;container=0;" vertex="1" parent="2">
          <mxGeometry x="679" y="310" width="57" height="57" as="geometry" />
        </mxCell>
        <mxCell id="150" value="" style="shape=stencil(rZRNbsMgEIVPw7bC4GZf0fYexJnEKAQsoEl7+2CPLYU4Rv7pxtK8Jz5mHmDCha9lA4TRmvBPwhij8RPLG5ZlX0rfQBVQu0qn5F4DOj44e4abOoSeoEwNToXW5V+EfpAWSQkXlTUmQpQ1PnEe/AiTysS19Bdh/fZ/ffX2jnUTd7hAAId6gSph37PBxRYwF1GZGoeLvazOJ2d/zOFlO41soxoZg32xV3jo8ykBmht1QGhlphFsBYKniGIWotLWQ+ZYoj6KolMn8uPiaB1kgj0qrfE6ZnZdlP6asbPhz0OkTbBdgiiXN/FE2H4BthNWIcr/RhS75cex6i2kXZRLEK8fyuBN3vdu2ejBdCr+8jvhDg==);html=1;verticalAlign=top;align=left;spacingTop=10;spacing=0;spacingLeft=25;fillColor=none;flipV=1;rotation=-90;aspect=fixed;strokeWidth=2;container=0;" vertex="1" parent="2">
          <mxGeometry x="713" y="333.25" width="20" height="10" as="geometry" />
        </mxCell>
        <mxCell id="151" value="" style="edgeStyle=orthogonalEdgeStyle;orthogonalLoop=1;jettySize=auto;html=1;rounded=0;endArrow=none;startFill=0;entryX=1;entryY=0.5;entryDx=0;entryDy=0;strokeWidth=2;" edge="1" parent="2" source="152">
          <mxGeometry width="100" relative="1" as="geometry">
            <mxPoint x="713" y="324" as="sourcePoint" />
            <mxPoint x="723" y="333" as="targetPoint" />
          </mxGeometry>
        </mxCell>
        <mxCell id="152" value="" style="shape=waypoint;sketch=0;fillStyle=solid;size=6;pointerEvents=1;points=[];fillColor=none;resizable=0;rotatable=0;perimeter=centerPerimeter;snapToPoint=1;strokeColor=default;strokeWidth=1;container=0;" vertex="1" parent="2">
          <mxGeometry x="703" y="307.25" width="20" height="20" as="geometry" />
        </mxCell>
        <mxCell id="153" value="" style="edgeStyle=orthogonalEdgeStyle;orthogonalLoop=1;jettySize=auto;html=1;rounded=0;exitX=0;exitY=0.5;exitDx=0;exitDy=0;endArrow=none;startFill=0;strokeWidth=2;" edge="1" parent="2" target="154">
          <mxGeometry width="100" relative="1" as="geometry">
            <mxPoint x="723" y="348" as="sourcePoint" />
            <mxPoint x="723" y="369" as="targetPoint" />
            <Array as="points">
              <mxPoint x="723" y="358" />
            </Array>
          </mxGeometry>
        </mxCell>
        <mxCell id="154" value="" style="shape=waypoint;sketch=0;fillStyle=solid;size=6;pointerEvents=1;points=[];fillColor=none;resizable=0;rotatable=0;perimeter=centerPerimeter;snapToPoint=1;strokeColor=default;strokeWidth=1;container=0;" vertex="1" parent="2">
          <mxGeometry x="703" y="348" width="20" height="20" as="geometry" />
        </mxCell>
        <mxCell id="155" value="" style="edgeStyle=orthogonalEdgeStyle;orthogonalLoop=1;jettySize=auto;html=1;rounded=0;entryX=0.5;entryY=0.5;entryDx=0;entryDy=0;entryPerimeter=0;endArrow=block;endFill=0;strokeWidth=2;" edge="1" parent="2" source="154">
          <mxGeometry width="100" relative="1" as="geometry">
            <mxPoint x="623" y="369" as="sourcePoint" />
            <mxPoint x="693" y="338" as="targetPoint" />
            <Array as="points">
              <mxPoint x="713" y="338" />
            </Array>
          </mxGeometry>
        </mxCell>
        <mxCell id="156" value="Q&lt;sub&gt;2&lt;/sub&gt;" style="text;html=1;align=center;verticalAlign=middle;resizable=0;points=[];autosize=1;strokeColor=none;fillColor=none;fontSize=20;fontStyle=1;rounded=0;" vertex="1" parent="2">
          <mxGeometry x="658" y="280" width="50" height="40" as="geometry" />
        </mxCell>
        <mxCell id="157" value="" style="shape=stencil(xZXbboMwDIafJrdTTu24nej6Hin1RlSaoJAe9vYLhFYlLGgjVJMQkv3jL45jHMTyphQ1IIoviG0QpRy7lzNLb2a9KZoaCut9Z2Gk2FXglcYafYCL3Ns+RKoSjLStyt4RfnPftA/LC62Ug0itmoHyoDuYkMrF4quH9ct/9dbLytu1W+EIFoz3E+9FdPtrMBmCn4MlS2HvGw8LEUJY7jyxQrN8J4rDp9EntR9HRbUPbeAH4S7LqvJNMLGpWrTtMRJu8lGfIXboazxVrxuhkuqBQF5nIIZJBAj6P1kEtSDZ37MIECw9C8aTs+Dr5CxWM04kbC2anMWcvuCLI9LPdM5fxhdHZJOIbkxFJom7yGIzqAsbDbHO6y+/zvEN);whiteSpace=wrap;html=1;strokeWidth=2;movable=1;resizable=1;rotatable=1;deletable=1;editable=1;locked=0;connectable=1;" vertex="1" parent="2">
          <mxGeometry x="673" y="297.25" width="40" height="80" as="geometry" />
        </mxCell>
        <mxCell id="158" value="" style="edgeStyle=none;orthogonalLoop=1;jettySize=auto;html=1;labelBackgroundColor=none;fontSize=10;startArrow=open;startFill=0;endArrow=none;endFill=0;curved=1;dashed=1;rounded=0;strokeWidth=2;fontColor=light-dark(default, #ed333b);strokeColor=light-dark(#FF3333,#FF3333);" edge="1" parent="2">
          <mxGeometry width="80" relative="1" as="geometry">
            <mxPoint x="473" y="210" as="sourcePoint" />
            <mxPoint x="513" y="210" as="targetPoint" />
            <Array as="points" />
          </mxGeometry>
        </mxCell>
        <mxCell id="159" value="&lt;i&gt;i1Low&lt;/i&gt;" style="edgeLabel;html=1;align=center;verticalAlign=middle;resizable=0;points=[];fontSize=15;labelBackgroundColor=none;fontColor=light-dark(#FF3333,#FF3333);" vertex="1" connectable="0" parent="158">
          <mxGeometry x="0.52" y="-1" relative="1" as="geometry">
            <mxPoint x="-13" y="-16" as="offset" />
          </mxGeometry>
        </mxCell>
        <mxCell id="160" value="" style="edgeStyle=none;orthogonalLoop=1;jettySize=auto;html=1;labelBackgroundColor=none;fontSize=10;startArrow=openThin;startFill=0;endArrow=none;endFill=0;curved=1;dashed=1;rounded=0;strokeWidth=2;fontColor=light-dark(default, #ed333b);strokeColor=light-dark(#FF3333,#FF3333);" edge="1" parent="2">
          <mxGeometry width="80" relative="1" as="geometry">
            <mxPoint x="1090" y="96.82999999999993" as="sourcePoint" />
            <mxPoint x="1130" y="96.82999999999993" as="targetPoint" />
            <Array as="points" />
          </mxGeometry>
        </mxCell>
        <mxCell id="161" value="&lt;i&gt;iHigh&lt;/i&gt;" style="edgeLabel;html=1;align=center;verticalAlign=middle;resizable=0;points=[];fontSize=15;labelBackgroundColor=none;fontColor=light-dark(#FF3333,#FF3333);" vertex="1" connectable="0" parent="160">
          <mxGeometry x="0.52" y="-1" relative="1" as="geometry">
            <mxPoint x="-12" y="-15" as="offset" />
          </mxGeometry>
        </mxCell>
        <mxCell id="162" value="" style="edgeStyle=none;orthogonalLoop=1;jettySize=auto;html=1;labelBackgroundColor=none;fontSize=10;startArrow=openThin;startFill=0;endArrow=openThin;endFill=0;curved=1;dashed=1;rounded=0;strokeColor=light-dark(#FF3333,#FF3333);strokeWidth=2;" edge="1" parent="2">
          <mxGeometry width="80" relative="1" as="geometry">
            <mxPoint x="1055.6599999999999" y="380.25" as="sourcePoint" />
            <mxPoint x="1055.6599999999999" y="140.25" as="targetPoint" />
            <Array as="points" />
          </mxGeometry>
        </mxCell>
        <mxCell id="163" value="&lt;div&gt;&lt;i&gt;&amp;nbsp;&amp;nbsp;&amp;nbsp;&amp;nbsp;&amp;nbsp;&amp;nbsp;&lt;/i&gt;&lt;/div&gt;&lt;div&gt;&lt;i&gt;&lt;br&gt;&lt;/i&gt;&lt;/div&gt;&lt;div&gt;&lt;i&gt;&lt;br&gt;&lt;/i&gt;&lt;/div&gt;&lt;div&gt;&lt;i&gt;&lt;br&gt;&lt;/i&gt;&lt;/div&gt;&lt;div&gt;&lt;i&gt;&lt;br&gt;&lt;/i&gt;&lt;/div&gt;&lt;div&gt;&lt;i&gt;&amp;nbsp;&amp;nbsp;&amp;nbsp;&amp;nbsp;&amp;nbsp;&amp;nbsp;&amp;nbsp;&amp;nbsp;&lt;/i&gt;&lt;/div&gt;&lt;div&gt;&lt;i&gt;&amp;nbsp;&amp;nbsp;&amp;nbsp;&amp;nbsp;&amp;nbsp; VSource&lt;/i&gt;&lt;/div&gt;" style="edgeLabel;html=1;align=center;verticalAlign=middle;resizable=0;points=[];fontSize=15;labelBackgroundColor=none;fontColor=light-dark(#FF3333,#FF3333);" vertex="1" connectable="0" parent="162">
          <mxGeometry x="0.52" y="-1" relative="1" as="geometry">
            <mxPoint x="20" y="2" as="offset" />
          </mxGeometry>
        </mxCell>
        <mxCell id="164" value="" style="edgeStyle=none;orthogonalLoop=1;jettySize=auto;html=1;labelBackgroundColor=none;fontSize=10;startArrow=openThin;startFill=0;endArrow=openThin;endFill=0;curved=1;dashed=1;rounded=0;strokeColor=light-dark(#FF3333,#FF3333);strokeWidth=2;" edge="1" parent="2">
          <mxGeometry width="80" relative="1" as="geometry">
            <mxPoint x="83" y="426.74" as="sourcePoint" />
            <mxPoint x="83.5" y="273.25" as="targetPoint" />
            <Array as="points" />
          </mxGeometry>
        </mxCell>
        <mxCell id="165" value="&lt;div&gt;&lt;i&gt;&amp;nbsp;&amp;nbsp;&amp;nbsp;&amp;nbsp;&amp;nbsp;&amp;nbsp;&lt;/i&gt;&lt;/div&gt;&lt;div&gt;&lt;i&gt;&lt;br&gt;&lt;/i&gt;&lt;/div&gt;&lt;div&gt;&lt;i&gt;&lt;br&gt;&lt;/i&gt;&lt;/div&gt;&lt;div&gt;&lt;i&gt;&lt;br&gt;&lt;/i&gt;&lt;/div&gt;&lt;div&gt;&lt;i&gt;&lt;br&gt;&lt;/i&gt;&lt;/div&gt;&lt;div&gt;&lt;i&gt;&amp;nbsp;&amp;nbsp;&amp;nbsp;&amp;nbsp;&amp;nbsp;&amp;nbsp;&amp;nbsp;&amp;nbsp;&lt;/i&gt;&lt;/div&gt;&lt;div&gt;&lt;i&gt;&amp;nbsp;&amp;nbsp;&amp;nbsp;&amp;nbsp;&amp;nbsp;&amp;nbsp;&amp;nbsp;&amp;nbsp; V&lt;sub&gt;Low&lt;/sub&gt;&lt;/i&gt;&lt;/div&gt;" style="edgeLabel;html=1;align=center;verticalAlign=middle;resizable=0;points=[];fontSize=15;labelBackgroundColor=none;fontColor=light-dark(#FF3333,#FF3333);" vertex="1" connectable="0" parent="164">
          <mxGeometry x="0.52" y="-1" relative="1" as="geometry">
            <mxPoint x="9" y="-31" as="offset" />
          </mxGeometry>
        </mxCell>
        <mxCell id="166" value="" style="pointerEvents=1;verticalLabelPosition=middle;shadow=0;dashed=0;align=left;html=1;verticalAlign=top;shape=mxgraph.electrical.resistors.resistor_2;labelPosition=center;spacingBottom=0;spacingLeft=25;direction=west;spacing=0;spacingTop=10;points=[[0,0.5,0,0,0],[0.5,0,0,0,-3],[0.5,1,0,0,2],[1,0.5,0,0,0]];fillColor=none;rotation=90;strokeWidth=2;" vertex="1" parent="2">
          <mxGeometry x="23" y="319.75" width="60" height="20" as="geometry" />
        </mxCell>
        <mxCell id="167" value="" style="pointerEvents=1;verticalLabelPosition=middle;shadow=0;dashed=0;align=left;html=1;verticalAlign=top;shape=mxgraph.electrical.signal_sources.source;aspect=fixed;points=[[0.5,0,0],[1,0.5,0],[0.5,1,0],[0,0.5,0]];elSignalType=dc3;direction=south;labelPosition=center;spacingBottom=0;spacingLeft=40;spacing=0;spacingTop=20;fillColor=none;strokeWidth=2;rotation=-90;" vertex="1" parent="2">
          <mxGeometry x="1133" y="233" width="40" height="40" as="geometry" />
        </mxCell>
        <mxCell id="168" value="" style="shape=waypoint;sketch=0;fillStyle=solid;size=6;pointerEvents=1;points=[];fillColor=none;resizable=0;rotatable=0;perimeter=centerPerimeter;snapToPoint=1;strokeWidth=2;" vertex="1" parent="2">
          <mxGeometry x="43" y="249.25" width="20" height="20" as="geometry" />
        </mxCell>
        <mxCell id="169" value="" style="edgeStyle=elbowEdgeStyle;orthogonalLoop=1;jettySize=auto;html=1;rounded=0;entryX=0.5;entryY=0.537;entryDx=0;entryDy=0;endArrow=none;startFill=0;exitDx=0;exitDy=0;jumpStyle=arc;strokeWidth=2;exitX=1;exitY=0.5;exitPerimeter=0;entryPerimeter=0;" edge="1" parent="2" source="166" target="168">
          <mxGeometry width="100" relative="1" as="geometry">
            <mxPoint x="63" y="269" as="sourcePoint" />
            <mxPoint x="148" y="227" as="targetPoint" />
          </mxGeometry>
        </mxCell>
        <mxCell id="170" value="" style="edgeStyle=elbowEdgeStyle;orthogonalLoop=1;jettySize=auto;html=1;rounded=0;endArrow=none;startFill=0;exitDx=0;exitDy=0;jumpStyle=arc;strokeWidth=2;exitX=0.624;exitY=0.618;exitPerimeter=0;entryX=0;entryY=0.5;entryDx=0;entryDy=0;elbow=vertical;" edge="1" parent="2" source="168" target="18">
          <mxGeometry width="100" relative="1" as="geometry">
            <mxPoint x="73" y="279" as="sourcePoint" />
            <mxPoint x="123" y="260" as="targetPoint" />
          </mxGeometry>
        </mxCell>
        <mxCell id="171" value="" style="group;strokeWidth=2;fillColor=none;" connectable="0" vertex="1" parent="2">
          <mxGeometry x="408" y="359.75" width="57" height="60.75" as="geometry" />
        </mxCell>
        <mxCell id="172" value="" style="ellipse;whiteSpace=wrap;html=1;fillColor=light-dark(#99C3B7,#99C3B7);strokeWidth=2;strokeColor=default;container=0;" vertex="1" parent="171">
          <mxGeometry y="2.75" width="57" height="57" as="geometry" />
        </mxCell>
        <mxCell id="173" value="" style="shape=stencil(rZRNbsMgEIVPw7bC4GZf0fYexJnEKAQsoEl7+2CPLYU4Rv7pxtK8Jz5mHmDCha9lA4TRmvBPwhij8RPLG5ZlX0rfQBVQu0qn5F4DOj44e4abOoSeoEwNToXW5V+EfpAWSQkXlTUmQpQ1PnEe/AiTysS19Bdh/fZ/ffX2jnUTd7hAAId6gSph37PBxRYwF1GZGoeLvazOJ2d/zOFlO41soxoZg32xV3jo8ykBmht1QGhlphFsBYKniGIWotLWQ+ZYoj6KolMn8uPiaB1kgj0qrfE6ZnZdlP6asbPhz0OkTbBdgiiXN/FE2H4BthNWIcr/RhS75cex6i2kXZRLEK8fyuBN3vdu2ejBdCr+8jvhDg==);html=1;verticalAlign=top;align=left;spacingTop=10;spacing=0;spacingLeft=25;fillColor=none;flipV=1;rotation=-90;aspect=fixed;strokeWidth=2;container=0;" vertex="1" parent="171">
          <mxGeometry x="34" y="26" width="20" height="10" as="geometry" />
        </mxCell>
        <mxCell id="174" value="" style="edgeStyle=orthogonalEdgeStyle;orthogonalLoop=1;jettySize=auto;html=1;rounded=0;endArrow=none;startFill=0;entryX=1;entryY=0.5;entryDx=0;entryDy=0;strokeWidth=2;" edge="1" parent="171" source="175">
          <mxGeometry width="100" relative="1" as="geometry">
            <mxPoint x="34" y="16.75" as="sourcePoint" />
            <mxPoint x="44" y="25.75" as="targetPoint" />
          </mxGeometry>
        </mxCell>
        <mxCell id="175" value="" style="shape=waypoint;sketch=0;fillStyle=solid;size=6;pointerEvents=1;points=[];fillColor=none;resizable=0;rotatable=0;perimeter=centerPerimeter;snapToPoint=1;strokeColor=default;strokeWidth=1;container=0;" vertex="1" parent="171">
          <mxGeometry x="24" width="20" height="20" as="geometry" />
        </mxCell>
        <mxCell id="176" value="" style="edgeStyle=orthogonalEdgeStyle;orthogonalLoop=1;jettySize=auto;html=1;rounded=0;exitX=0;exitY=0.5;exitDx=0;exitDy=0;endArrow=none;startFill=0;strokeWidth=2;" edge="1" parent="171" target="177">
          <mxGeometry width="100" relative="1" as="geometry">
            <mxPoint x="44" y="40.75" as="sourcePoint" />
            <mxPoint x="44" y="61.75" as="targetPoint" />
            <Array as="points">
              <mxPoint x="44" y="50.75" />
            </Array>
          </mxGeometry>
        </mxCell>
        <mxCell id="177" value="" style="shape=waypoint;sketch=0;fillStyle=solid;size=6;pointerEvents=1;points=[];fillColor=none;resizable=0;rotatable=0;perimeter=centerPerimeter;snapToPoint=1;strokeColor=default;strokeWidth=1;container=0;" vertex="1" parent="171">
          <mxGeometry x="24" y="40.75" width="20" height="20" as="geometry" />
        </mxCell>
        <mxCell id="178" value="" style="edgeStyle=orthogonalEdgeStyle;orthogonalLoop=1;jettySize=auto;html=1;rounded=0;entryX=0.5;entryY=0.5;entryDx=0;entryDy=0;entryPerimeter=0;endArrow=block;endFill=0;strokeWidth=2;" edge="1" parent="171" source="177">
          <mxGeometry width="100" relative="1" as="geometry">
            <mxPoint x="-56" y="61.75" as="sourcePoint" />
            <mxPoint x="14" y="30.75" as="targetPoint" />
            <Array as="points">
              <mxPoint x="34" y="30.75" />
            </Array>
          </mxGeometry>
        </mxCell>
        <mxCell id="179" value="" style="shape=stencil(xZXbboMwDIafJrdTTu24nej6Hin1RlSaoJAe9vYLhFYlLGgjVJMQkv3jL45jHMTyphQ1IIoviG0QpRy7lzNLb2a9KZoaCut9Z2Gk2FXglcYafYCL3Ns+RKoSjLStyt4RfnPftA/LC62Ug0itmoHyoDuYkMrF4quH9ct/9dbLytu1W+EIFoz3E+9FdPtrMBmCn4MlS2HvGw8LEUJY7jyxQrN8J4rDp9EntR9HRbUPbeAH4S7LqvJNMLGpWrTtMRJu8lGfIXboazxVrxuhkuqBQF5nIIZJBAj6P1kEtSDZ37MIECw9C8aTs+Dr5CxWM04kbC2anMWcvuCLI9LPdM5fxhdHZJOIbkxFJom7yGIzqAsbDbHO6y+/zvEN);whiteSpace=wrap;html=1;strokeWidth=2;movable=1;resizable=1;rotatable=1;deletable=1;editable=1;locked=0;connectable=1;" vertex="1" parent="2">
          <mxGeometry x="402" y="349.75" width="40" height="80" as="geometry" />
        </mxCell>
        <mxCell id="180" value="" style="edgeStyle=none;orthogonalLoop=1;jettySize=auto;html=1;labelBackgroundColor=none;fontSize=10;startArrow=open;startFill=0;endArrow=none;endFill=0;curved=1;dashed=1;rounded=0;strokeWidth=2;fontColor=light-dark(default, #ed333b);strokeColor=light-dark(#FF3333,#FF3333);" edge="1" parent="2">
          <mxGeometry width="80" relative="1" as="geometry">
            <mxPoint x="471" y="250" as="sourcePoint" />
            <mxPoint x="511" y="250" as="targetPoint" />
            <Array as="points" />
          </mxGeometry>
        </mxCell>
        <mxCell id="181" value="&lt;i&gt;i2Low&lt;/i&gt;" style="edgeLabel;html=1;align=center;verticalAlign=middle;resizable=0;points=[];fontSize=15;labelBackgroundColor=none;fontColor=light-dark(#FF3333,#FF3333);" vertex="1" connectable="0" parent="180">
          <mxGeometry x="0.52" y="-1" relative="1" as="geometry">
            <mxPoint x="-13" y="-16" as="offset" />
          </mxGeometry>
        </mxCell>
        <mxCell id="182" value="Q&lt;sub&gt;3&lt;/sub&gt;" style="text;html=1;align=center;verticalAlign=middle;resizable=0;points=[];autosize=1;strokeColor=none;fillColor=none;fontSize=20;fontStyle=1;rounded=0;" vertex="1" parent="2">
          <mxGeometry x="818" y="80" width="50" height="40" as="geometry" />
        </mxCell>
        <mxCell id="183" value="" style="ellipse;whiteSpace=wrap;html=1;fillColor=light-dark(#99C3B7,#99C3B7);strokeWidth=2;strokeColor=default;container=0;" vertex="1" parent="2">
          <mxGeometry x="839" y="110" width="57" height="57" as="geometry" />
        </mxCell>
        <mxCell id="184" value="" style="shape=stencil(rZRNbsMgEIVPw7bC4GZf0fYexJnEKAQsoEl7+2CPLYU4Rv7pxtK8Jz5mHmDCha9lA4TRmvBPwhij8RPLG5ZlX0rfQBVQu0qn5F4DOj44e4abOoSeoEwNToXW5V+EfpAWSQkXlTUmQpQ1PnEe/AiTysS19Bdh/fZ/ffX2jnUTd7hAAId6gSph37PBxRYwF1GZGoeLvazOJ2d/zOFlO41soxoZg32xV3jo8ykBmht1QGhlphFsBYKniGIWotLWQ+ZYoj6KolMn8uPiaB1kgj0qrfE6ZnZdlP6asbPhz0OkTbBdgiiXN/FE2H4BthNWIcr/RhS75cex6i2kXZRLEK8fyuBN3vdu2ejBdCr+8jvhDg==);html=1;verticalAlign=top;align=left;spacingTop=10;spacing=0;spacingLeft=25;fillColor=none;flipV=1;rotation=-90;aspect=fixed;strokeWidth=2;container=0;" vertex="1" parent="2">
          <mxGeometry x="873" y="133.25" width="20" height="10" as="geometry" />
        </mxCell>
        <mxCell id="185" value="" style="edgeStyle=orthogonalEdgeStyle;orthogonalLoop=1;jettySize=auto;html=1;rounded=0;endArrow=none;startFill=0;entryX=1;entryY=0.5;entryDx=0;entryDy=0;strokeWidth=2;" edge="1" parent="2" source="186">
          <mxGeometry width="100" relative="1" as="geometry">
            <mxPoint x="873" y="124" as="sourcePoint" />
            <mxPoint x="883" y="133" as="targetPoint" />
          </mxGeometry>
        </mxCell>
        <mxCell id="186" value="" style="shape=waypoint;sketch=0;fillStyle=solid;size=6;pointerEvents=1;points=[];fillColor=none;resizable=0;rotatable=0;perimeter=centerPerimeter;snapToPoint=1;strokeColor=default;strokeWidth=1;container=0;" vertex="1" parent="2">
          <mxGeometry x="863" y="107.25" width="20" height="20" as="geometry" />
        </mxCell>
        <mxCell id="187" value="" style="edgeStyle=orthogonalEdgeStyle;orthogonalLoop=1;jettySize=auto;html=1;rounded=0;exitX=0;exitY=0.5;exitDx=0;exitDy=0;endArrow=none;startFill=0;strokeWidth=2;" edge="1" parent="2" target="188">
          <mxGeometry width="100" relative="1" as="geometry">
            <mxPoint x="883" y="148" as="sourcePoint" />
            <mxPoint x="883" y="169" as="targetPoint" />
            <Array as="points">
              <mxPoint x="883" y="158" />
            </Array>
          </mxGeometry>
        </mxCell>
        <mxCell id="188" value="" style="shape=waypoint;sketch=0;fillStyle=solid;size=6;pointerEvents=1;points=[];fillColor=none;resizable=0;rotatable=0;perimeter=centerPerimeter;snapToPoint=1;strokeColor=default;strokeWidth=1;container=0;" vertex="1" parent="2">
          <mxGeometry x="863" y="148" width="20" height="20" as="geometry" />
        </mxCell>
        <mxCell id="189" value="" style="edgeStyle=orthogonalEdgeStyle;orthogonalLoop=1;jettySize=auto;html=1;rounded=0;entryX=0.5;entryY=0.5;entryDx=0;entryDy=0;entryPerimeter=0;endArrow=block;endFill=0;strokeWidth=2;" edge="1" parent="2" source="188">
          <mxGeometry width="100" relative="1" as="geometry">
            <mxPoint x="783" y="169" as="sourcePoint" />
            <mxPoint x="853" y="138" as="targetPoint" />
            <Array as="points">
              <mxPoint x="873" y="138" />
            </Array>
          </mxGeometry>
        </mxCell>
        <mxCell id="190" value="" style="shape=stencil(xZXbboMwDIafJrdTTu24nej6Hin1RlSaoJAe9vYLhFYlLGgjVJMQkv3jL45jHMTyphQ1IIoviG0QpRy7lzNLb2a9KZoaCut9Z2Gk2FXglcYafYCL3Ns+RKoSjLStyt4RfnPftA/LC62Ug0itmoHyoDuYkMrF4quH9ct/9dbLytu1W+EIFoz3E+9FdPtrMBmCn4MlS2HvGw8LEUJY7jyxQrN8J4rDp9EntR9HRbUPbeAH4S7LqvJNMLGpWrTtMRJu8lGfIXboazxVrxuhkuqBQF5nIIZJBAj6P1kEtSDZ37MIECw9C8aTs+Dr5CxWM04kbC2anMWcvuCLI9LPdM5fxhdHZJOIbkxFJom7yGIzqAsbDbHO6y+/zvEN);whiteSpace=wrap;html=1;strokeWidth=2;movable=1;resizable=1;rotatable=1;deletable=1;editable=1;locked=0;connectable=1;" vertex="1" parent="2">
          <mxGeometry x="833" y="97.25" width="40" height="80" as="geometry" />
        </mxCell>
        <mxCell id="191" value="Q&lt;sub&gt;4&lt;/sub&gt;" style="text;html=1;align=center;verticalAlign=middle;resizable=0;points=[];autosize=1;strokeColor=none;fillColor=none;fontSize=20;fontStyle=1;rounded=0;strokeWidth=2;" vertex="1" parent="2">
          <mxGeometry x="818" y="280" width="50" height="40" as="geometry" />
        </mxCell>
        <mxCell id="192" value="" style="ellipse;whiteSpace=wrap;html=1;fillColor=light-dark(#99C3B7,#99C3B7);strokeWidth=2;strokeColor=default;container=0;" vertex="1" parent="2">
          <mxGeometry x="839" y="310" width="57" height="57" as="geometry" />
        </mxCell>
        <mxCell id="193" value="" style="shape=stencil(rZRNbsMgEIVPw7bC4GZf0fYexJnEKAQsoEl7+2CPLYU4Rv7pxtK8Jz5mHmDCha9lA4TRmvBPwhij8RPLG5ZlX0rfQBVQu0qn5F4DOj44e4abOoSeoEwNToXW5V+EfpAWSQkXlTUmQpQ1PnEe/AiTysS19Bdh/fZ/ffX2jnUTd7hAAId6gSph37PBxRYwF1GZGoeLvazOJ2d/zOFlO41soxoZg32xV3jo8ykBmht1QGhlphFsBYKniGIWotLWQ+ZYoj6KolMn8uPiaB1kgj0qrfE6ZnZdlP6asbPhz0OkTbBdgiiXN/FE2H4BthNWIcr/RhS75cex6i2kXZRLEK8fyuBN3vdu2ejBdCr+8jvhDg==);html=1;verticalAlign=top;align=left;spacingTop=10;spacing=0;spacingLeft=25;fillColor=none;flipV=1;rotation=-90;aspect=fixed;strokeWidth=2;container=0;" vertex="1" parent="2">
          <mxGeometry x="873" y="333.25" width="20" height="10" as="geometry" />
        </mxCell>
        <mxCell id="194" value="" style="edgeStyle=orthogonalEdgeStyle;orthogonalLoop=1;jettySize=auto;html=1;rounded=0;endArrow=none;startFill=0;entryX=1;entryY=0.5;entryDx=0;entryDy=0;strokeWidth=2;" edge="1" parent="2" source="195">
          <mxGeometry width="100" relative="1" as="geometry">
            <mxPoint x="873" y="324" as="sourcePoint" />
            <mxPoint x="883" y="333" as="targetPoint" />
          </mxGeometry>
        </mxCell>
        <mxCell id="195" value="" style="shape=waypoint;sketch=0;fillStyle=solid;size=6;pointerEvents=1;points=[];fillColor=none;resizable=0;rotatable=0;perimeter=centerPerimeter;snapToPoint=1;strokeColor=default;strokeWidth=1;container=0;" vertex="1" parent="2">
          <mxGeometry x="863" y="307.25" width="20" height="20" as="geometry" />
        </mxCell>
        <mxCell id="196" value="" style="edgeStyle=orthogonalEdgeStyle;orthogonalLoop=1;jettySize=auto;html=1;rounded=0;exitX=0;exitY=0.5;exitDx=0;exitDy=0;endArrow=none;startFill=0;strokeWidth=2;" edge="1" parent="2" target="197">
          <mxGeometry width="100" relative="1" as="geometry">
            <mxPoint x="883" y="348" as="sourcePoint" />
            <mxPoint x="883" y="369" as="targetPoint" />
            <Array as="points">
              <mxPoint x="883" y="358" />
            </Array>
          </mxGeometry>
        </mxCell>
        <mxCell id="197" value="" style="shape=waypoint;sketch=0;fillStyle=solid;size=6;pointerEvents=1;points=[];fillColor=none;resizable=0;rotatable=0;perimeter=centerPerimeter;snapToPoint=1;strokeColor=default;strokeWidth=1;container=0;" vertex="1" parent="2">
          <mxGeometry x="863" y="348" width="20" height="20" as="geometry" />
        </mxCell>
        <mxCell id="198" value="" style="edgeStyle=orthogonalEdgeStyle;orthogonalLoop=1;jettySize=auto;html=1;rounded=0;entryX=0.5;entryY=0.5;entryDx=0;entryDy=0;entryPerimeter=0;endArrow=block;endFill=0;strokeWidth=2;" edge="1" parent="2" source="197">
          <mxGeometry width="100" relative="1" as="geometry">
            <mxPoint x="783" y="369" as="sourcePoint" />
            <mxPoint x="853" y="338" as="targetPoint" />
            <Array as="points">
              <mxPoint x="873" y="338" />
            </Array>
          </mxGeometry>
        </mxCell>
        <mxCell id="199" value="" style="shape=stencil(xZXbboMwDIafJrdTTu24nej6Hin1RlSaoJAe9vYLhFYlLGgjVJMQkv3jL45jHMTyphQ1IIoviG0QpRy7lzNLb2a9KZoaCut9Z2Gk2FXglcYafYCL3Ns+RKoSjLStyt4RfnPftA/LC62Ug0itmoHyoDuYkMrF4quH9ct/9dbLytu1W+EIFoz3E+9FdPtrMBmCn4MlS2HvGw8LEUJY7jyxQrN8J4rDp9EntR9HRbUPbeAH4S7LqvJNMLGpWrTtMRJu8lGfIXboazxVrxuhkuqBQF5nIIZJBAj6P1kEtSDZ37MIECw9C8aTs+Dr5CxWM04kbC2anMWcvuCLI9LPdM5fxhdHZJOIbkxFJom7yGIzqAsbDbHO6y+/zvEN);whiteSpace=wrap;html=1;strokeWidth=2;movable=1;resizable=1;rotatable=1;deletable=1;editable=1;locked=0;connectable=1;" vertex="1" parent="2">
          <mxGeometry x="833" y="297.25" width="40" height="80" as="geometry" />
        </mxCell>
        <mxCell id="200" value="" style="edgeStyle=elbowEdgeStyle;orthogonalLoop=1;jettySize=auto;html=1;rounded=0;endArrow=none;startFill=0;jumpStyle=arc;exitDx=0;exitDy=0;entryX=0.535;entryY=0.973;entryDx=0;entryDy=0;entryPerimeter=0;exitPerimeter=0;strokeWidth=2;exitX=0;exitY=0.5;" edge="1" parent="2" source="59" target="113">
          <mxGeometry width="100" relative="1" as="geometry">
            <mxPoint x="1008" y="70" as="sourcePoint" />
            <mxPoint x="960" y="70" as="targetPoint" />
          </mxGeometry>
        </mxCell>
      </root>
    </mxGraphModel>
  </diagram>
</mxfile>
